<svg width="50" height="50" viewBox="0 0 50 50" fill="none" xmlns="http://www.w3.org/2000/svg">
<path d="M21.5413 23.5599C22.4261 23.0589 23.095 22.5009 23.5534 21.8979C24.3689 20.8119 24.7713 19.3719 24.7713 17.5869C24.7713 15.85 24.3689 14.365 23.564 13.12C22.2209 11.092 19.9476 10.054 16.7335 10H4V39.2588H15.8727C17.2106 39.2588 18.4498 39.1298 19.5958 38.8658C20.7418 38.5988 21.7332 38.1098 22.5726 37.3958C23.3189 36.7748 23.9425 36.0038 24.4382 35.0948C25.2217 33.7208 25.6135 32.1638 25.6135 30.4298C25.6135 28.7498 25.2697 27.3189 24.5874 26.1429C23.8972 24.9669 22.8845 24.1059 21.5413 23.5599ZM9.25279 15.082H14.9879C16.2485 15.082 17.2879 15.235 18.1034 15.538C19.0468 15.979 19.5185 16.8759 19.5185 18.2439C19.5185 19.4709 19.1587 20.3289 18.4472 20.8119C17.7303 21.2949 16.8002 21.5379 15.6595 21.5379H9.25279V15.082ZM18.3219 33.6668C17.6876 34.0118 16.7948 34.1828 15.6515 34.1828H9.25279V26.3799H15.7395C16.8695 26.3889 17.7489 26.5569 18.3779 26.8719C19.4972 27.4419 20.0542 28.4859 20.0542 30.0128C20.0542 31.8128 19.4785 33.0248 18.3219 33.6668Z" fill="#106467"/>
<path d="M42.5391 11.3647H31.2473V15.0067H42.5391V11.3647Z" fill="#106467"/>
<path d="M46.4622 25.7382C46.2277 24.0433 45.7107 22.5523 44.9058 21.2653C44.0237 19.8073 42.9044 18.7393 41.5425 18.0643C40.186 17.3863 38.659 17.0473 36.9587 17.0503C34.1044 17.0503 31.7859 18.0553 29.9923 20.0503C28.204 22.0513 27.3086 24.9282 27.3086 28.6782C27.3086 32.6772 28.2973 35.5662 30.2854 37.3391C32.2656 39.1151 34.5522 40.0001 37.1479 40.0001C40.29 40.0001 42.7338 38.9471 44.4794 36.8471C45.5961 35.5212 46.2277 34.2162 46.3663 32.9352H41.1641C40.863 33.5682 40.5138 34.0632 40.1141 34.4232C39.3892 35.0832 38.4458 35.4132 37.2892 35.4132C36.1885 35.4132 35.2557 35.1402 34.4775 34.5972C33.193 33.7272 32.5214 32.2032 32.4361 30.0342H46.6328C46.6541 28.1652 46.6008 26.7282 46.4622 25.7382ZM32.564 26.2992C32.7506 24.8922 33.2037 23.7763 33.9232 22.9513C34.6428 22.1293 35.6608 21.7153 36.964 21.7123C38.1659 21.7123 39.1707 22.0993 39.9888 22.8763C40.7963 23.6593 41.2521 24.7962 41.3453 26.2992H32.564Z" fill="#106467"/>
</svg>
