<svg xmlns="http://www.w3.org/2000/svg" width="100" height="100" viewBox="0 0 100 100">
  <g id="email" transform="translate(-5236 -2625)">
    <path id="email-2" data-name="email" d="M90.625,59.882H9.375A9.385,9.385,0,0,0,0,69.257v56.25a9.385,9.385,0,0,0,9.375,9.375h81.25A9.385,9.385,0,0,0,100,125.507V69.257A9.385,9.385,0,0,0,90.625,59.882Zm0,6.25a3.107,3.107,0,0,1,1.2.242L50,102.622,8.177,66.374a3.111,3.111,0,0,1,1.2-.242Zm0,62.5H9.375a3.127,3.127,0,0,1-3.125-3.125V72.977l41.7,36.142a3.13,3.13,0,0,0,4.1,0l41.7-36.142v52.53A3.127,3.127,0,0,1,90.625,128.632Z" transform="translate(5236 2573.118)" fill="#df3661"/>
    <rect id="Retângulo_68" data-name="Retângulo 68" width="100" height="100" transform="translate(5236 2625)" fill="none"/>
  </g>
</svg>
