<svg width="50" height="49" viewBox="0 0 50 49" fill="none" xmlns="http://www.w3.org/2000/svg">
<path d="M41.25 9.98682H8.75C7.75576 9.98787 6.80255 10.3828 6.09952 11.0849C5.39649 11.787 5.00106 12.7389 5 13.7318V36.202C5.00106 37.195 5.39649 38.1469 6.09952 38.849C6.80255 39.5511 7.75576 39.946 8.75 39.9471H41.25C42.2442 39.946 43.1975 39.5511 43.9005 38.849C44.6035 38.1469 44.9989 37.195 45 36.202V13.7318C44.9989 12.7389 44.6035 11.787 43.9005 11.0849C43.1975 10.3828 42.2442 9.98787 41.25 9.98682V9.98682ZM41.25 12.4835C41.4147 12.4848 41.5775 12.5187 41.729 12.5834L25 27.0602L8.271 12.5804C8.42247 12.5157 8.58529 12.4818 8.75 12.4805L41.25 12.4835ZM41.25 37.4504H8.75C8.41856 37.4501 8.10077 37.3185 7.86641 37.0845C7.63205 36.8504 7.50026 36.533 7.5 36.202V15.2179L24.181 29.6557C24.4085 29.8522 24.6992 29.9604 25 29.9604C25.3008 29.9604 25.5915 29.8522 25.819 29.6557L42.5 15.2179V36.202C42.4997 36.533 42.368 36.8504 42.1336 37.0845C41.8992 37.3185 41.5814 37.4501 41.25 37.4504Z" fill="#106467" stroke="#106467"/>
</svg>
