<svg xmlns="http://www.w3.org/2000/svg" xmlns:xlink="http://www.w3.org/1999/xlink" width="160" height="152" viewBox="0 0 160 152"><defs><clipPath id="a"><rect width="160" height="152" transform="translate(390 5293)" fill="#ffe700"/></clipPath></defs><g transform="translate(-390 -5293)" clip-path="url(#a)"><g transform="translate(390 5289)"><rect width="120" height="120" transform="translate(20 20)" fill="#eceff1"/><path d="M80,92.62,140,140V46.46Z" fill="#cfd8dc"/><path d="M145,20h-5L80,67.38,20,20H15A15.005,15.005,0,0,0,0,35v90a15.005,15.005,0,0,0,15,15h5V46.46L80,92.61l60-46.16V140h5a15.005,15.005,0,0,0,15-15V35A15.005,15.005,0,0,0,145,20Z" fill="#f44336"/></g></g></svg>