<svg xmlns="http://www.w3.org/2000/svg" xmlns:xlink="http://www.w3.org/1999/xlink" width="160" height="152" viewBox="0 0 160 152"><defs><clipPath id="a"><rect width="160" height="152" transform="translate(389.727 5293)" fill="#ffe700"/></clipPath></defs><g transform="translate(-389.727 -5293)" clip-path="url(#a)"><path d="M79.3,3.3C35.488,3.3,0,38.2,0,81.233c0,34.437,22.72,63.641,54.224,73.937,3.965.734,5.419-1.679,5.419-3.747,0-1.85-.066-6.754-.1-13.25-22.059,4.7-26.712-10.455-26.712-10.455-3.608-8.994-8.822-11.4-8.822-11.4-7.184-4.831.555-4.732.555-4.732,7.963.542,12.147,8.029,12.147,8.029,7.071,11.915,18.564,8.472,23.1,6.483.714-5.042,2.756-8.472,5.023-10.422-17.612-1.95-36.123-8.651-36.123-38.508a29.773,29.773,0,0,1,8.162-20.91c-.892-1.969-3.569-9.893.694-20.625,0,0,6.642-2.088,21.808,7.99a76.035,76.035,0,0,1,39.652,0c15.068-10.078,21.709-7.99,21.709-7.99,4.263,10.732,1.586,18.656.793,20.625a29.894,29.894,0,0,1,8.129,20.91c0,29.937-18.537,36.526-36.182,38.442,2.776,2.339,5.353,7.117,5.353,14.42,0,10.428-.1,18.808-.1,21.339,0,2.042,1.388,4.481,5.452,3.7,31.728-10.23,54.428-39.453,54.428-73.838C158.606,38.2,123.1,3.3,79.3,3.3Z" transform="translate(390.424 5289.696)" fill="#212121"/></g></svg>