<svg xmlns="http://www.w3.org/2000/svg" width="43" height="43" viewBox="0 0 43 43">
  <path id="git" d="M21,0A21,21,0,1,0,42,21.082,21.143,21.143,0,0,0,21,0Zm3.691,39.17a18.642,18.642,0,0,1-7.383,0V33.411a3.5,3.5,0,0,1,.861-2.535A26.913,26.913,0,0,0,19.7,28.637l-1.895-.3c-4.873-.714-6.792-3.249-7.555-5.217a8.369,8.369,0,0,1,1.3-8.022,1.484,1.484,0,0,0,.3-1.428,7.249,7.249,0,0,1-.074-3.618,11.226,11.226,0,0,1,3.765,1.8,1.768,1.768,0,0,0,1.033.246,17.884,17.884,0,0,1,4.454-.64,15.079,15.079,0,0,1,4.11.591,1.776,1.776,0,0,0,1.329-.2,10.932,10.932,0,0,1,3.765-1.8,7.253,7.253,0,0,1-.074,3.618,1.482,1.482,0,0,0,.3,1.428,8.37,8.37,0,0,1,1.3,8.022c-.763,1.969-2.682,4.5-7.555,5.217l-1.895.3a26.317,26.317,0,0,0,1.526,2.239,3.5,3.5,0,0,1,.861,2.535Zm2.461-.714V33.411a5.9,5.9,0,0,0-.689-3.027c3.741-1.009,6.4-3.224,7.58-6.4a10.82,10.82,0,0,0-1.4-10.09c.369-1.649.369-4.282-.517-5.512A1.921,1.921,0,0,0,30.5,7.547h-.025c-1.908.1-3.41,1.064-5.02,2.042A17.356,17.356,0,0,0,20.975,9a17,17,0,0,0-4.4.591c-1.7-1.022-3.183-1.942-5.144-2.042a1.888,1.888,0,0,0-1.551.837c-.886,1.23-.886,3.864-.517,5.512a10.83,10.83,0,0,0-1.4,10.09c1.181,3.175,3.839,5.39,7.58,6.4a5.351,5.351,0,0,0-.642,2.156,3.28,3.28,0,0,1-2.02.166A2.723,2.723,0,0,1,11.3,31.356c-.977-1.642-2.642-2.982-4.537-2.808L6.975,31c.878-.08,1.751.848,2.2,1.614a5.066,5.066,0,0,0,5.668,2.525v3.318a18.539,18.539,0,1,1,12.3,0Zm0,0" transform="translate(0.5 0.5)" fill="#df3661" stroke="#df3661" stroke-width="1"/>
</svg>
