<svg xmlns="http://www.w3.org/2000/svg" width="100" height="100" viewBox="0 0 100 100">
  <path id="git" d="M50,0C22.52,0,0,22.715,0,50.2a50,50,0,0,0,100,0C100,22.715,77.48,0,50,0Zm8.789,93.262a44.385,44.385,0,0,1-17.578,0V79.551a8.33,8.33,0,0,1,2.051-6.036,64.078,64.078,0,0,0,3.632-5.331l-4.511-.7c-11.6-1.7-16.172-7.735-17.989-12.422a19.926,19.926,0,0,1,3.106-19.1,3.533,3.533,0,0,0,.7-3.4,17.26,17.26,0,0,1-.176-8.614c3.107.444,6.3,2.67,8.965,4.278a4.21,4.21,0,0,0,2.46.586,42.582,42.582,0,0,1,10.606-1.524,35.9,35.9,0,0,1,9.785,1.406,4.228,4.228,0,0,0,3.164-.468c2.785-1.7,5.871-3.846,8.965-4.278a17.268,17.268,0,0,1-.175,8.614,3.529,3.529,0,0,0,.7,3.4,19.928,19.928,0,0,1,3.105,19.1c-1.817,4.688-6.387,10.723-17.989,12.422l-4.511.7a62.662,62.662,0,0,0,3.633,5.331,8.333,8.333,0,0,1,2.05,6.036Zm5.859-1.7V79.551a14.051,14.051,0,0,0-1.641-7.207c8.907-2.4,15.235-7.676,18.047-15.234a25.762,25.762,0,0,0-3.34-24.023c.88-3.925.88-10.2-1.23-13.125a4.574,4.574,0,0,0-3.867-1.992h-.059c-4.543.246-8.119,2.534-11.953,4.863a41.324,41.324,0,0,0-10.664-1.406,40.475,40.475,0,0,0-10.487,1.406c-4.036-2.434-7.578-4.623-12.247-4.863a4.494,4.494,0,0,0-3.692,1.992c-2.109,2.93-2.109,9.2-1.23,13.125a25.785,25.785,0,0,0-3.34,24.023c2.812,7.558,9.141,12.833,18.047,15.234a12.74,12.74,0,0,0-1.529,5.134,7.81,7.81,0,0,1-4.81.4,6.483,6.483,0,0,1-3.759-3.217c-2.327-3.909-6.29-7.1-10.8-6.686l.515,5.836c2.09-.191,4.169,2.019,5.25,3.842a12.062,12.062,0,0,0,13.5,6.013v7.9A44.038,44.038,0,0,1,5.859,50.2C5.859,25.938,25.742,5.859,50,5.859S94.141,25.938,94.141,50.2A44.038,44.038,0,0,1,64.648,91.563Zm0,0" fill="#df3661"/>
</svg>
