<svg xmlns="http://www.w3.org/2000/svg" xmlns:xlink="http://www.w3.org/1999/xlink" width="160" height="152" viewBox="0 0 160 152"><defs><clipPath id="a"><rect width="160" height="152" transform="translate(390 5293)" fill="#ffe700"/></clipPath><linearGradient id="b" x1="0.084" y1="0.916" x2="0.916" y2="0.084" gradientUnits="objectBoundingBox"><stop offset="0" stop-color="#ffd600"/><stop offset="0.5" stop-color="#ff0100"/><stop offset="1" stop-color="#d800b9"/></linearGradient><linearGradient id="c" x1="0.146" y1="0.854" x2="0.854" y2="0.146" gradientUnits="objectBoundingBox"><stop offset="0" stop-color="#ff6400"/><stop offset="0.5" stop-color="#ff0100"/><stop offset="1" stop-color="#fd0056"/></linearGradient><linearGradient id="d" x1="0.146" y1="0.854" x2="0.854" y2="0.146" gradientUnits="objectBoundingBox"><stop offset="0" stop-color="#f30072"/><stop offset="1" stop-color="#e50097"/></linearGradient></defs><g transform="translate(-390 -5293)" clip-path="url(#a)"><g transform="translate(393.999 5293)"><path d="M151.544,44.666a55.8,55.8,0,0,0-3.534-18.448,37.248,37.248,0,0,0-8.766-13.462,37.259,37.259,0,0,0-13.462-8.768A55.786,55.786,0,0,0,107.335.459C99.23.088,96.641,0,76,0S52.771.088,44.666.457A55.8,55.8,0,0,0,26.218,3.99a37.248,37.248,0,0,0-13.462,8.766,37.255,37.255,0,0,0-8.768,13.46A55.792,55.792,0,0,0,.459,44.665C.088,52.771,0,55.359,0,76S.088,99.23.459,107.335a55.782,55.782,0,0,0,3.532,18.448,37.244,37.244,0,0,0,8.766,13.46,37.238,37.238,0,0,0,13.462,8.766c4.834,1.88,10.358,3.164,18.448,3.534,8.106.37,10.695.457,31.335.457s23.229-.087,31.335-.457c8.09-.37,13.613-1.654,18.448-3.534a38.855,38.855,0,0,0,22.226-22.226c1.88-4.835,3.164-10.359,3.534-18.448C151.913,99.229,152,96.64,152,76s-.088-23.229-.457-31.335Zm-13.681,62.046c-.337,7.41-1.576,11.434-2.616,14.112a25.168,25.168,0,0,1-14.424,14.424c-2.678,1.04-6.7,2.279-14.112,2.616-8.012.366-10.416.443-30.71.443s-22.7-.077-30.712-.443c-7.409-.337-11.433-1.576-14.112-2.616a23.553,23.553,0,0,1-8.738-5.686,23.543,23.543,0,0,1-5.686-8.738c-1.04-2.678-2.279-6.7-2.616-14.112-.365-8.013-.443-10.417-.443-30.71s.078-22.7.443-30.712c.339-7.41,1.576-11.434,2.616-14.112a23.562,23.562,0,0,1,5.686-8.739,23.531,23.531,0,0,1,8.739-5.685c2.678-1.041,6.7-2.279,14.112-2.617,8.013-.365,10.417-.443,30.71-.443h0c20.293,0,22.7.078,30.712.444,7.41.337,11.433,1.576,14.112,2.616a23.565,23.565,0,0,1,8.738,5.685,23.531,23.531,0,0,1,5.685,8.739c1.041,2.678,2.28,6.7,2.617,14.112.365,8.013.443,10.417.443,30.71s-.077,22.7-.443,30.712Zm0,0" fill="url(#b)"/><path d="M76,36.973A39.027,39.027,0,1,0,115.027,76,39.028,39.028,0,0,0,76,36.973Zm0,64.361A25.334,25.334,0,1,1,101.334,76,25.333,25.333,0,0,1,76,101.334Zm0,0" fill="url(#c)"/><path d="M125.689,35.432a9.12,9.12,0,1,1-9.12-9.121A9.12,9.12,0,0,1,125.689,35.432Zm0,0" fill="url(#d)"/></g></g></svg>