<svg xmlns="http://www.w3.org/2000/svg" width="50" height="49.065" viewBox="0 0 50 49.065">
  <g id="insta" transform="translate(-5424 -2787)">
    <g id="insta-2" data-name="insta" transform="translate(5428.551 2792)">
      <path id="Caminho_19" data-name="Caminho 19" d="M40.347,11.762a14.619,14.619,0,0,0-.93-4.854,10.249,10.249,0,0,0-5.854-5.854A14.656,14.656,0,0,0,28.71.125C26.568.024,25.888,0,20.456,0s-6.112.024-8.245.117a14.623,14.623,0,0,0-4.853.93A9.762,9.762,0,0,0,3.809,3.361,9.85,9.85,0,0,0,1.5,6.9a14.658,14.658,0,0,0-.93,4.853C.472,13.9.449,14.576.449,20.008s.024,6.112.117,8.245a14.618,14.618,0,0,0,.93,4.854A10.247,10.247,0,0,0,7.35,38.961a14.659,14.659,0,0,0,4.854.93c2.133.094,2.814.117,8.245.117s6.112-.023,8.245-.117a14.615,14.615,0,0,0,4.853-.93A10.233,10.233,0,0,0,39.4,33.107a14.668,14.668,0,0,0,.93-4.854c.094-2.134.117-2.814.117-8.245s-.008-6.112-.1-8.245ZM36.744,28.1a10.966,10.966,0,0,1-.688,3.712,6.637,6.637,0,0,1-3.8,3.8,11,11,0,0,1-3.712.688c-2.11.094-2.743.117-8.081.117s-5.979-.023-8.081-.117a10.96,10.96,0,0,1-3.712-.688,6.156,6.156,0,0,1-2.3-1.493,6.22,6.22,0,0,1-1.493-2.3A11.006,11.006,0,0,1,4.192,28.1c-.094-2.11-.117-2.743-.117-8.081s.023-5.979.117-8.081A10.96,10.96,0,0,1,4.88,8.23a6.081,6.081,0,0,1,1.5-2.3,6.211,6.211,0,0,1,2.3-1.493,11.012,11.012,0,0,1,3.712-.688c2.11-.094,2.743-.117,8.081-.117s5.979.024,8.081.117a10.966,10.966,0,0,1,3.712.688,6.152,6.152,0,0,1,2.3,1.493,6.219,6.219,0,0,1,1.493,2.3,11.01,11.01,0,0,1,.688,3.712c.094,2.11.117,2.743.117,8.081s-.024,5.963-.117,8.074Zm0,0" fill="#df3661"/>
      <path id="Caminho_20" data-name="Caminho 20" d="M134.949,124.5a10,10,0,1,0,10,10A10,10,0,0,0,134.949,124.5Zm0,16.487a6.487,6.487,0,1,1,6.487-6.487A6.488,6.488,0,0,1,134.949,140.987Zm0,0" transform="translate(-115 -114)" fill="#df3661"/>
      <path id="Caminho_21" data-name="Caminho 21" d="M367.45,91.1a2.5,2.5,0,1,1-2.5-2.5A2.5,2.5,0,0,1,367.45,91.1Zm0,0" transform="translate(-335.001 -83)" fill="#df3661"/>
    </g>
    <rect id="Retângulo_69" data-name="Retângulo 69" width="50" height="49.065" transform="translate(5424 2787)" fill="none"/>
  </g>
</svg>
