<svg xmlns="http://www.w3.org/2000/svg" width="100" height="100.019" viewBox="0 0 100 100.019">
  <g id="insta" transform="translate(-0.449)">
    <path id="Caminho_19" data-name="Caminho 19" d="M100.194,29.406A36.547,36.547,0,0,0,97.87,17.272,25.621,25.621,0,0,0,83.235,2.638,36.641,36.641,0,0,0,71.1.313C65.747.059,64.048,0,50.468,0S35.189.059,29.855.293A36.558,36.558,0,0,0,17.721,2.618,24.4,24.4,0,0,0,8.85,8.4a24.625,24.625,0,0,0-5.764,8.851A36.645,36.645,0,0,0,.761,29.386C.507,34.74.449,36.44.449,50.02S.507,65.3.742,70.633A36.545,36.545,0,0,0,3.067,82.767,25.617,25.617,0,0,0,17.7,97.4a36.646,36.646,0,0,0,12.134,2.325c5.334.235,7.034.293,20.613.293s15.279-.058,20.613-.293A36.538,36.538,0,0,0,83.2,97.4,25.583,25.583,0,0,0,97.831,82.767a36.67,36.67,0,0,0,2.325-12.134c.234-5.334.293-7.034.293-20.613s-.02-15.279-.254-20.613ZM91.188,70.242a27.415,27.415,0,0,1-1.72,9.281,16.591,16.591,0,0,1-9.5,9.5,27.512,27.512,0,0,1-9.281,1.719c-5.275.235-6.858.293-20.2.293s-14.947-.058-20.2-.293A27.4,27.4,0,0,1,21,89.019a15.391,15.391,0,0,1-5.744-3.732,15.55,15.55,0,0,1-3.732-5.744,27.516,27.516,0,0,1-1.719-9.281c-.235-5.275-.293-6.858-.293-20.2s.058-14.947.293-20.2a27.4,27.4,0,0,1,1.719-9.281,15.2,15.2,0,0,1,3.752-5.745A15.526,15.526,0,0,1,21.023,11.1,27.531,27.531,0,0,1,30.3,9.379c5.275-.234,6.858-.293,20.2-.293,13.365,0,14.947.059,20.2.293a27.415,27.415,0,0,1,9.281,1.72,15.38,15.38,0,0,1,5.744,3.731,15.547,15.547,0,0,1,3.732,5.745,27.526,27.526,0,0,1,1.72,9.281c.234,5.275.293,6.858.293,20.2s-.059,14.908-.293,20.184Zm0,0" fill="#df3661"/>
    <path id="Caminho_20" data-name="Caminho 20" d="M149.949,124.5a25,25,0,1,0,25,25A25.006,25.006,0,0,0,149.949,124.5Zm0,41.217A16.217,16.217,0,1,1,166.166,149.5,16.219,16.219,0,0,1,149.949,165.717Zm0,0" transform="translate(-100 -99)" fill="#df3661"/>
    <path id="Caminho_21" data-name="Caminho 21" d="M372.45,93.6a5,5,0,1,1-5-5A5,5,0,0,1,372.45,93.6Zm0,0" transform="translate(-291.001 -73)" fill="#df3661"/>
  </g>
</svg>
