<svg xmlns="http://www.w3.org/2000/svg" width="50" height="49.065" viewBox="0 0 50 49.065">
  <g id="linkedin" transform="translate(-5573 -2812)">
    <path id="linkedin_2_" data-name="linkedin (2)" d="M12.5,33.047H7.032V15.391H12.5Zm.546-23.282a3.2,3.2,0,1,0-3.2,3.2,3.2,3.2,0,0,0,3.2-3.2ZM32.969,23.333c0-4.74-1-8.255-6.538-8.255a5.675,5.675,0,0,0-5.175,2.714H21.25v-2.4H15.938V33.047H21.25V24.28c0-2.3.584-4.52,3.43-4.52,2.807,0,2.9,2.625,2.9,4.666v8.621h5.391ZM40,35.313V4.688A4.693,4.693,0,0,0,35.313,0H4.688A4.693,4.693,0,0,0,0,4.688V35.313A4.693,4.693,0,0,0,4.688,40H35.313A4.693,4.693,0,0,0,40,35.313ZM35.313,3.125a1.564,1.564,0,0,1,1.563,1.563V35.313a1.564,1.564,0,0,1-1.562,1.563H4.688a1.564,1.564,0,0,1-1.562-1.562V4.688A1.564,1.564,0,0,1,4.688,3.125Zm0,0" transform="translate(5578 2816)" fill="#df3661"/>
    <rect id="Retângulo_74" data-name="Retângulo 74" width="50" height="49.065" transform="translate(5573 2812)" fill="none"/>
  </g>
</svg>
