<svg width="50" height="49" viewBox="0 0 50 49" fill="none" xmlns="http://www.w3.org/2000/svg">
<path d="M44.9898 45.0002V44.9985H45V29.9618C45 22.6057 43.4164 16.9392 34.8167 16.9392C30.6826 16.9392 27.9082 19.2079 26.7756 21.3586H26.656V17.626H18.5022V44.9985H26.9926V31.4446C26.9926 27.8759 27.6691 24.4251 32.0885 24.4251C36.443 24.4251 36.508 28.4977 36.508 31.6735V45.0002H44.9898Z" fill="#106467"/>
<path d="M4.67651 17.6274H13.1771V45H4.67651V17.6274Z" fill="#106467"/>
<path d="M8.9234 4C6.20545 4 4 6.20545 4 8.9234C4 11.6414 6.20545 13.8929 8.9234 13.8929C11.6413 13.8929 13.8468 11.6414 13.8468 8.9234C13.8451 6.20545 11.6396 4 8.9234 4V4Z" fill="#106467"/>
</svg>
