<svg xmlns="http://www.w3.org/2000/svg" width="50" height="49.065" viewBox="0 0 50 49.065">
  <g id="whats" transform="translate(-5424 -2706)">
    <rect id="Retângulo_73" data-name="Retângulo 73" width="50" height="49.065" transform="translate(5424 2706)" fill="none"/>
    <g id="Grupo_9" data-name="Grupo 9" transform="translate(5440.15 2721.13)">
      <g id="Grupo_8" data-name="Grupo 8">
        <path id="Caminho_22" data-name="Caminho 22" d="M200.706,193.394c-.119-.193-.428-.311-.893-.543s-2.768-1.352-3.194-1.507a1.559,1.559,0,0,0-.5-.121.646.646,0,0,0-.552.353c-.311.465-1.209,1.507-1.479,1.819a.648.648,0,0,1-.5.266,1.152,1.152,0,0,1-.508-.151,12.617,12.617,0,0,1-3.761-2.3,14.1,14.1,0,0,1-2.6-3.214c-.273-.461-.028-.714.208-.943.21-.214.465-.545.7-.815a3.072,3.072,0,0,0,.465-.772.85.85,0,0,0-.041-.813c-.115-.231-1.049-2.513-1.443-3.443-.29-.692-.582-.781-.824-.781-.082,0-.16.011-.229.011-.268,0-.577-.041-.893-.041a1.72,1.72,0,0,0-1.246.584,5.176,5.176,0,0,0-1.637,3.865,8.929,8.929,0,0,0,1.912,4.795c.231.311,3.233,5.145,7.983,7,2.753,1.077,3.912,1.321,4.566,1.321a7.469,7.469,0,0,0,1.045-.162,4.734,4.734,0,0,0,3.155-2.206A3.823,3.823,0,0,0,200.706,193.394Z" transform="translate(-181.776 -180.4)" fill="#df3661"/>
      </g>
    </g>
    <path id="Caminho_30" data-name="Caminho 30" d="M108.662,88.32c-10.846,0-19.67,9.238-19.67,20.594a21.326,21.326,0,0,0,2.347,9.766l-2.9,9.012a2.2,2.2,0,0,0,.467,2.157,1.946,1.946,0,0,0,1.431.634,1.9,1.9,0,0,0,.607-.1l8.988-3.008a19.018,19.018,0,0,0,8.726,2.129c10.848,0,19.674-9.236,19.674-20.59S119.511,88.32,108.662,88.32Zm0,36.961a15.128,15.128,0,0,1-7.574-2.036,1.918,1.918,0,0,0-1.573-.161l-6.006,2.009,1.916-5.957a2.217,2.217,0,0,0-.186-1.779A16.882,16.882,0,0,1,93,108.916c0-9.024,7.026-16.369,15.662-16.369s15.666,7.345,15.666,16.369S117.3,125.281,108.658,125.281Z" transform="translate(5340.785 2620.855)" fill="#df3661"/>
  </g>
</svg>
