<svg xmlns="http://www.w3.org/2000/svg" width="100" height="100" viewBox="0 0 100 100">
  <g id="whats" transform="translate(-5124 -2625)">
    <g id="whats-2" data-name="whats" transform="translate(5124 2625)">
      <g id="Grupo_9" data-name="Grupo 9" transform="translate(-143.996 -145)">
        <g id="Grupo_8" data-name="Grupo 8" transform="translate(181.776 180.4)">
          <path id="Caminho_22" data-name="Caminho 22" d="M211.666,200.916c-.188-.3-.676-.492-1.41-.857s-4.371-2.134-5.044-2.38a2.462,2.462,0,0,0-.792-.191,1.019,1.019,0,0,0-.871.557c-.492.734-1.909,2.38-2.336,2.872a1.024,1.024,0,0,1-.792.42,1.819,1.819,0,0,1-.8-.239,19.922,19.922,0,0,1-5.938-3.627,22.269,22.269,0,0,1-4.108-5.074c-.43-.727-.044-1.127.328-1.489.331-.338.734-.861,1.11-1.287a4.85,4.85,0,0,0,.734-1.219,1.342,1.342,0,0,0-.065-1.284c-.181-.365-1.656-3.968-2.278-5.436-.458-1.093-.919-1.233-1.3-1.233-.13,0-.253.017-.362.017-.423,0-.912-.065-1.41-.065a2.716,2.716,0,0,0-1.967.922,8.172,8.172,0,0,0-2.585,6.1c0,3.606,2.643,7.082,3.019,7.571s5.105,8.124,12.6,11.057c4.347,1.7,6.177,2.086,7.209,2.086a11.79,11.79,0,0,0,1.649-.256c1.349-.12,4.364-1.776,4.982-3.483A6.037,6.037,0,0,0,211.666,200.916Z" transform="translate(-181.776 -180.4)" fill="#df3661"/>
        </g>
      </g>
      <g id="Grupo_12" data-name="Grupo 12">
        <g id="Grupo_11" data-name="Grupo 11">
          <g id="Grupo_10" data-name="Grupo 10">
            <path id="Caminho_23" data-name="Caminho 23" d="M73.174,0H26.826A27.186,27.186,0,0,0,0,26.826V73.171A27.187,27.187,0,0,0,26.826,100H73.174A27.19,27.19,0,0,0,100,73.168V26.826A27.186,27.186,0,0,0,73.174,0ZM93.548,73.168A20.648,20.648,0,0,1,73.174,93.545H26.826A20.648,20.648,0,0,1,6.452,73.168V26.826A20.65,20.65,0,0,1,26.826,6.452H73.174A20.648,20.648,0,0,1,93.548,26.826Z" fill="#df3661"/>
            <path id="Caminho_24" data-name="Caminho 24" d="M88.337,88.32h0Zm0,0h0Z" fill="#df3661"/>
          </g>
        </g>
      </g>
    </g>
    <path id="Caminho_30" data-name="Caminho 30" d="M118.825,88.32c-16.269,0-29.506,13.857-29.506,30.891a31.989,31.989,0,0,0,3.52,14.649L88.5,147.378a3.294,3.294,0,0,0,.7,3.235,2.92,2.92,0,0,0,2.146.951,2.842,2.842,0,0,0,.911-.149l13.483-4.512a28.527,28.527,0,0,0,13.089,3.194c16.272,0,29.512-13.853,29.512-30.885S135.1,88.32,118.825,88.32Zm-.006,55.442a22.691,22.691,0,0,1-11.36-3.055,2.878,2.878,0,0,0-2.36-.241L96.09,143.48l2.874-8.936a3.325,3.325,0,0,0-.28-2.668,25.323,25.323,0,0,1-3.358-12.662c0-13.537,10.54-24.554,23.493-24.554s23.5,11.017,23.5,24.554S131.779,143.762,118.819,143.762Z" transform="translate(5056 2555)" fill="#df3661"/>
  </g>
</svg>
