<svg xmlns="http://www.w3.org/2000/svg" xmlns:xlink="http://www.w3.org/1999/xlink" width="160" height="152" viewBox="0 0 160 152"><defs><clipPath id="a"><rect width="160" height="152" transform="translate(390 5293)" fill="#ffe700"/></clipPath></defs><g transform="translate(-390 -5293)" clip-path="url(#a)"><g transform="translate(394 5293)"><path d="M76.019,0h-.038A75.953,75.953,0,0,0,14.469,120.546L5,148.779l29.212-9.338A75.987,75.987,0,1,0,76.019,0Z" fill="#4caf50"/><path d="M120.241,107.322c-1.833,5.177-9.11,9.471-14.915,10.725-3.971.845-9.158,1.52-26.619-5.719C56.373,103.075,41.99,80.38,40.869,78.907c-1.073-1.472-9.025-12.018-9.025-22.924a24.263,24.263,0,0,1,7.771-18.5c1.833-1.871,4.864-2.726,7.771-2.726.941,0,1.786.048,2.546.085,2.233.1,3.354.228,4.826,3.752,1.833,4.418,6.3,15.324,6.83,16.444a4.524,4.524,0,0,1,.323,4.114,13.134,13.134,0,0,1-2.46,3.486c-1.121,1.292-2.185,2.28-3.306,3.667-1.026,1.207-2.185,2.5-.893,4.731A67.458,67.458,0,0,0,67.583,86.365,55.874,55.874,0,0,0,85.4,97.356a4.805,4.805,0,0,0,5.358-.845A91.954,91.954,0,0,0,96.7,88.645a4.242,4.242,0,0,1,5.453-1.653c2.052.712,12.91,6.08,15.143,7.191s3.705,1.653,4.246,2.593S122.075,102.135,120.241,107.322Z" fill="#fafafa"/></g></g></svg>