<svg width="50" height="49" viewBox="0 0 50 49" fill="none" xmlns="http://www.w3.org/2000/svg">
<path d="M35.0801 28.0867C34.9611 27.8939 34.6521 27.7761 34.1871 27.5444C33.7221 27.3127 31.4191 26.1942 30.9931 26.0394C30.8343 25.9717 30.6653 25.9309 30.4931 25.9186C30.3779 25.9228 30.2661 25.9578 30.169 26.0197C30.0719 26.0817 29.9932 26.1685 29.9411 26.2711C29.6301 26.7355 28.7321 27.7761 28.4621 28.0877C28.4043 28.1669 28.3293 28.2319 28.2427 28.2779C28.1561 28.3239 28.0601 28.3497 27.9621 28.3533C27.7833 28.3432 27.6094 28.2915 27.4541 28.2025C26.0751 27.6632 24.802 26.8857 23.6931 25.9056C22.6732 24.969 21.7971 23.8875 21.0931 22.6958C20.8201 22.2354 21.0651 21.9828 21.3011 21.7541C21.5111 21.5403 21.7661 21.2098 22.0011 20.9402C22.1932 20.7074 22.3499 20.4476 22.4661 20.1692C22.5278 20.0412 22.5564 19.8998 22.5492 19.758C22.5421 19.6161 22.4994 19.4784 22.4251 19.3572C22.3101 19.1266 21.3761 16.8476 20.9821 15.9188C20.6921 15.2277 20.4001 15.1388 20.1581 15.1388C20.0761 15.1388 19.9981 15.1498 19.9291 15.1498C19.6611 15.1498 19.3521 15.1089 19.0361 15.1089C18.7994 15.1152 18.5665 15.1703 18.3521 15.2706C18.1377 15.371 17.9464 15.5145 17.7901 15.6921C17.2624 16.1856 16.8442 16.7841 16.5622 17.4489C16.2803 18.1137 16.1409 18.8301 16.1531 19.552C16.3044 21.3014 16.9695 22.9672 18.0651 24.3406C18.2961 24.6512 21.2981 29.4788 26.0481 31.3314C28.8011 32.4069 29.9601 32.6506 30.6141 32.6506C30.9658 32.6214 31.315 32.5673 31.6591 32.4888C32.3101 32.3628 32.9274 32.1016 33.4709 31.722C34.0144 31.3425 34.472 30.8532 34.8141 30.2857C35.1184 29.5951 35.2109 28.8298 35.0801 28.0867Z" fill="#106467"/>
<path d="M25.447 3.1709C14.601 3.1709 5.77703 12.3967 5.77703 23.7376C5.77068 27.1289 6.57533 30.4726 8.12403 33.4907L5.22403 42.4907C5.10499 42.8591 5.08549 43.2523 5.16749 43.6305C5.2495 44.0088 5.4301 44.3587 5.69103 44.6449C5.87267 44.8436 6.09365 45.0025 6.33998 45.1115C6.58631 45.2205 6.85261 45.2772 7.12203 45.278C7.32845 45.2779 7.53347 45.2442 7.72903 45.1782L16.717 42.1742C19.414 43.5685 22.4061 44.2976 25.443 44.3003C36.291 44.3003 45.117 35.0766 45.117 23.7376C45.117 12.3987 36.296 3.1709 25.447 3.1709ZM25.447 40.0829C22.7873 40.0819 20.1748 39.3806 17.873 38.0496C17.6373 37.9127 17.3751 37.8275 17.1039 37.7998C16.8326 37.7721 16.5586 37.8024 16.3 37.8888L10.294 39.8952L12.21 33.9461C12.3043 33.6533 12.3364 33.3441 12.3044 33.0382C12.2724 32.7323 12.1769 32.4364 12.024 32.1694C10.5503 29.6042 9.77811 26.697 9.78503 23.7396C9.78503 14.7276 16.811 7.3923 25.447 7.3923C34.083 7.3923 41.113 14.7276 41.113 23.7396C41.113 32.7517 34.085 40.0829 25.443 40.0829H25.447Z" fill="#106467"/>
</svg>
