<svg width="100" height="100" viewBox="0 0 100 100" fill="none" xmlns="http://www.w3.org/2000/svg">
<g clip-path="url(#clip0)">
<path d="M0 87.106C0 90.5257 1.35847 93.8053 3.77657 96.2234C6.19466 98.6415 9.4743 100 12.894 100H87.105C88.7984 100 90.4751 99.6667 92.0396 99.0188C93.6041 98.3709 95.0257 97.4211 96.2231 96.2238C97.4205 95.0265 98.3704 93.605 99.0184 92.0406C99.6665 90.4761 100 88.7994 100 87.106V12.895C100 11.2017 99.6667 9.52486 99.0188 7.96037C98.3709 6.39589 97.4211 4.97434 96.2238 3.77692C95.0265 2.57949 93.605 1.62964 92.0406 0.981593C90.4761 0.333546 88.7994 3.36887e-08 87.106 3.87813e-08H12.895C11.2017 -0.00013129 9.52486 0.333285 7.96037 0.98121C6.39589 1.62914 4.97434 2.57888 3.77692 3.77621C2.57949 4.97354 1.62964 6.39501 0.981593 7.95945C0.333546 9.52389 -5.09261e-09 11.2007 0 12.894L0 87.106Z" fill="#DF3661"/>
<path d="M36.7001 44.2884V31.4083H50.4683C51.7373 31.4052 53.0048 31.4954 54.2606 31.6782C55.3814 31.8289 56.4717 32.1543 57.4918 32.6426C58.3965 33.0783 59.1715 33.7432 59.7397 34.5712C60.3354 35.515 60.6296 36.6179 60.583 37.733C60.6592 38.7198 60.4638 39.7087 60.018 40.5924C59.5722 41.4761 58.893 42.2209 58.0541 42.7461C56.0847 43.8455 53.8498 44.3792 51.5961 44.2884H36.7001ZM22 22.0003V77.072H54.3961C57.3396 77.0779 60.2751 76.7678 63.1523 76.1469C65.8177 75.5996 68.3808 74.6378 70.7482 73.2965C72.8848 72.0858 74.6994 70.3796 76.0391 68.3214C77.3864 66.1618 78.0702 63.6543 78.0058 61.1097C78.0862 57.8959 77.0058 54.7607 74.9628 52.2785C72.9333 49.8361 69.8585 48.1263 65.7384 47.1489C68.3495 46.2296 70.6853 44.6641 72.5279 42.5983C74.097 40.6317 74.9107 38.1686 74.8216 35.6543C74.8983 33.3948 74.3644 31.1565 73.276 29.175C72.2275 27.409 70.7235 25.9572 68.9215 24.9717C66.8184 23.8382 64.5388 23.0687 62.179 22.6958C59.3016 22.212 56.3876 21.9796 53.4699 22.0014L22 22.0003ZM36.7001 67.6617V52.5417H52.7161C55.3952 52.4165 58.0558 53.0446 60.396 54.355C62.3314 55.5631 63.299 57.5813 63.299 60.4097C63.3499 61.6535 63.0407 62.8855 62.4086 63.9579C61.8154 64.8842 60.9929 65.6416 60.0208 66.1565C58.9353 66.7256 57.7652 67.1163 56.5555 67.3134C55.1947 67.5489 53.816 67.665 52.435 67.6606H36.7001V67.6617Z" fill="white"/>
</g>
<defs>
<clipPath id="clip0">
<rect width="100" height="100" fill="white"/>
</clipPath>
</defs>
</svg>
