<svg id="bootstrap" xmlns="http://www.w3.org/2000/svg" width="100" height="100" viewBox="0 0 100 100">
  <path id="Caminho_10" data-name="Caminho 10" d="M0,87.106A12.894,12.894,0,0,0,12.894,100H87.105A12.894,12.894,0,0,0,100,87.106V12.895A12.894,12.894,0,0,0,87.106,0H12.895A12.894,12.894,0,0,0,0,12.894V87.105Z" fill="#df3661"/>
  <path id="Caminho_11" data-name="Caminho 11" d="M85.2,70.4V58.9H97.493a23.113,23.113,0,0,1,3.386.241,9.664,9.664,0,0,1,2.885.861,5.139,5.139,0,0,1,2.007,1.722,4.905,4.905,0,0,1,.753,2.823,4.841,4.841,0,0,1-2.258,4.476A10.927,10.927,0,0,1,98.5,70.4ZM72.075,50.5V99.671H101a36.717,36.717,0,0,0,7.818-.826A23.243,23.243,0,0,0,115.6,96.3a13.689,13.689,0,0,0,4.724-4.442,11.61,11.61,0,0,0,1.756-6.439,11.938,11.938,0,0,0-2.717-7.885q-2.718-3.271-8.236-4.58a14.635,14.635,0,0,0,6.062-4.063,9.407,9.407,0,0,0,2.048-6.2,11.226,11.226,0,0,0-1.38-5.785,10.231,10.231,0,0,0-3.888-3.753,18.91,18.91,0,0,0-6.02-2.032,44.875,44.875,0,0,0-7.776-.62ZM85.2,91.269v-13.5H99.5a12.811,12.811,0,0,1,6.857,1.619q2.592,1.618,2.592,5.406a5.774,5.774,0,0,1-.795,3.168,5.7,5.7,0,0,1-2.132,1.963,10.194,10.194,0,0,1-3.094,1.033,21.184,21.184,0,0,1-3.679.31H85.2Z" transform="translate(-46.613 -25)" fill="#fff"/>
</svg>
