<svg width="100" height="100" viewBox="0 0 100 100" fill="none" xmlns="http://www.w3.org/2000/svg">
<rect width="100" height="100" rx="10" fill="#DF3661"/>
<path d="M37 95C44.176 95 50 89.624 50 83V71H37C29.824 71 24 76.376 24 83C24 89.624 29.824 95 37 95Z" fill="white"/>
<path d="M24.0052 57C24.0052 49.824 29.828 44 37.0026 44H50V70H37.0026C29.828 70 24.0052 64.176 24.0052 57Z" fill="white"/>
<path d="M24.004 30C24.004 22.824 29.8268 17 37.0014 17H49.9988V43H37.0014C29.8268 43 24.004 37.176 24.004 30Z" fill="white"/>
<path d="M51 17H63.5C70.4 17 76 22.824 76 30C76 37.176 70.4 43 63.5 43H51V17Z" fill="white"/>
<path d="M76 57C76 64.176 70.4 70 63.5 70C56.6 70 51 64.176 51 57C51 49.824 56.6 44 63.5 44C70.4 44 76 49.824 76 57Z" fill="white"/>
</svg>
