<svg xmlns="http://www.w3.org/2000/svg" width="100" height="96.41" viewBox="0 0 100 96.41">
  <path id="github" d="M50,.5C22.375.5,0,22.632,0,49.928a49.479,49.479,0,0,0,34.188,46.9c2.5.465,3.417-1.065,3.417-2.377,0-1.174-.042-4.284-.063-8.4C23.633,89.024,20.7,79.413,20.7,79.413c-2.275-5.7-5.563-7.231-5.563-7.231-4.529-3.064.35-3,.35-3,5.021.344,7.658,5.093,7.658,5.093,4.458,7.558,11.7,5.374,14.562,4.112a10.488,10.488,0,0,1,3.167-6.61C29.771,70.539,18.1,66.289,18.1,47.35a18.946,18.946,0,0,1,5.146-13.262c-.562-1.249-2.25-6.275.438-13.082,0,0,4.188-1.325,13.75,5.068a47.663,47.663,0,0,1,25,0c9.5-6.392,13.688-5.068,13.688-5.068,2.688,6.807,1,11.833.5,13.082A19.023,19.023,0,0,1,81.746,47.35c0,18.988-11.687,23.167-22.813,24.383,1.75,1.484,3.375,4.514,3.375,9.146,0,6.614-.062,11.93-.062,13.535,0,1.3.875,2.842,3.437,2.347A49.327,49.327,0,0,0,100,49.928C100,22.632,77.613.5,50,.5Z" transform="translate(0 -0.5)" fill="#df3661"/>
</svg>
