<svg xmlns="http://www.w3.org/2000/svg" width="100" height="100" viewBox="0 0 100 100">
  <g id="illustrator" transform="translate(-41)">
    <path id="Caminho_12" data-name="Caminho 12" d="M168.242,153.546C167.235,157.6,161.107,181,161.107,181h15s-6.671-23.4-7.668-27.454Z" transform="translate(-86.187 -123.066)" fill="#df3661" fill-rule="evenodd"/>
    <path id="Caminho_13" data-name="Caminho 13" d="M0,0V100H100V0ZM52.752,77.275,48.7,63.843H33.715L29.962,77.275H17.682L33.715,24.9H49.236L65.475,77.275Zm29.176,0H70.1V39.291H81.928ZM75.941,34.616a5.784,5.784,0,0,1-6.14-5.9c-.084-3.425,2.418-5.988,6.231-5.988a5.92,5.92,0,0,1,6.285,5.988C82.318,31.962,79.847,34.616,75.941,34.616Z" transform="translate(41)" fill="#df3661" fill-rule="evenodd"/>
  </g>
</svg>
