<svg width="100" height="100" viewBox="0 0 100 100" fill="none" xmlns="http://www.w3.org/2000/svg">
<rect width="100" height="100" rx="10" fill="#DF3661"/>
<path d="M10 41.8531L12.5037 32.047H33.5765L28.3605 52.9111L25.6481 65.8469C24.8136 68.2612 24.5354 70.6953 24.8136 71.5995C24.8136 74.6039 28.9864 74.2621 31.0728 73.7752C36.0802 72.1061 39.6967 65.8469 40.879 62.9259L45.8864 42.0618H37.1235L39.8358 32.047H59.0309L57.1531 42.6877C60.8252 35.5104 68.2807 31.7688 71.5494 30.7951C79.0605 29.9606 83.3029 35.1766 84.4852 37.8889C86.822 42.3956 86.4325 48.1124 85.9457 50.4074C85.278 54.5802 82.7465 62.4391 81.5642 65.8469C80.062 73.0241 82.1901 73.7057 83.442 73.1493C85.7788 73.6501 88.5885 68.4897 89.7012 65.8469L94.5 67.7246C94.5 70.5622 90.7444 76.0007 88.8667 78.3653C85.0277 82.5382 78.365 82.3295 75.5136 81.7036C67.8356 79.3668 68.0025 70.1588 69.0457 65.8469L73.2185 51.0333C74.7207 43.0215 69.6716 41.2967 66.9593 41.4358C61.4511 40.1005 57.7095 46.8605 56.5272 50.4074L48.8074 80.6604H36.2889L37.958 73.1493C35.4543 77.656 31.351 80.0345 29.6123 80.6604C23.2696 82.3295 19.3193 81.3559 18.137 80.6604C9.79136 78.4905 11.8778 66.2641 13.9642 60.4222L18.137 41.8531H10Z" fill="white" stroke="white" stroke-width="2"/>
<circle cx="25.294" cy="15.4118" r="8.41177" fill="white"/>
</svg>
