<svg xmlns="http://www.w3.org/2000/svg" width="100" height="121.233" viewBox="0 0 100 121.233">
  <g id="js" transform="translate(5 -113.4)">
    <path id="path5113" d="M4.282,222.4-5,113.4l100,.042L85.8,222.318,44.922,234.633Zm73.986-5.949,7.761-93.358H45.078l.312,102.969ZM41.256,136.781H31.31l-.117,55.874-19.306-5.616.039,12.772,29.329,8.446V136.781Z" fill="#df3661"/>
    <path id="path5159" d="M64.753,236.658c-1.287-.394-7.643-2.125-14.116-3.9L38.9,229.574v-5.943c0-5.825,0-5.943.585-5.746.312.118,4.6,1.3,9.514,2.676l8.93,2.48.078-26.37.078-26.37h9.748v33.533c0,26.646-.078,33.533-.351,33.533-.195-.039-1.443-.354-2.73-.708Z" transform="translate(-26 -31)" fill="rgba(235,235,235,0)" opacity="0.986"/>
    <path id="path5117" d="M123.4,136.6h47.953l-9.088,102.483L123.4,249.633Zm36.4,85.311,3.151-38.317-23.292,2.6v-20.46l24.844-.091,1-13.975-37.495.183.5,50.876,22.652-3.882-.32,11.326-22.835,6.074.228,13.884,31.558-8.221Z" transform="translate(-81.977 -15)" fill="#df3661"/>
  </g>
</svg>
