<svg id="photoshop" xmlns="http://www.w3.org/2000/svg" width="100" height="93.491" viewBox="0 0 100 93.491">
  <path id="Caminho_15" data-name="Caminho 15" d="M131.941,144.8a18.206,18.206,0,0,0-5.159.576v18.678a17.872,17.872,0,0,0,4.177.354c6.674,0,10.823-3.846,10.823-10.338C141.753,148.262,138.225,144.8,131.941,144.8Z" transform="translate(-98.204 -117.288)" fill="#df3661" fill-rule="evenodd"/>
  <path id="Caminho_16" data-name="Caminho 16" d="M0,0V93.491H100V0ZM49.279,48.634c-4.089,3.615-10.2,5.235-17.326,5.235a32.746,32.746,0,0,1-4.109-.2V71.513H15.9V22.283A106.36,106.36,0,0,1,32.2,21.246c7.45,0,12.752,1.315,16.3,4A14.136,14.136,0,0,1,54.207,36.79,15.332,15.332,0,0,1,49.279,48.634ZM67.312,72.245A28.843,28.843,0,0,1,54.8,69.718l2.141-8.054A24.909,24.909,0,0,0,67.312,64.4c3.625,0,5.142-1.186,5.142-3.039s-1.192-2.728-5.683-4.147c-8.018-2.507-11.1-6.583-11.02-10.885,0-6.732,6.175-11.844,15.753-11.844a27.457,27.457,0,0,1,10.936,2.073l-2.135,7.775a20.106,20.106,0,0,0-8.392-2.08c-2.925,0-4.574,1.114-4.574,2.961,0,1.7,1.49,2.585,6.224,4.153C80.931,51.718,84.015,55.211,84.1,60.53,84.1,67.288,78.38,72.245,67.312,72.245Z" fill="#df3661" fill-rule="evenodd"/>
</svg>
