<svg width="100" height="100" viewBox="0 0 100 100" fill="none" xmlns="http://www.w3.org/2000/svg">
<rect width="100" height="100" rx="10" fill="#DF3661"/>
<path fill-rule="evenodd" clip-rule="evenodd" d="M82.4756 54.738C79.6473 54.7409 76.8571 55.3908 74.3186 56.638C73.518 55.3219 72.9023 53.9019 72.4886 52.418C72.255 51.2493 72.2017 50.0518 72.3306 48.867C72.5982 47.5659 72.9564 46.2851 73.4026 45.034C73.3846 44.876 73.2086 44.102 71.4026 44.085C69.5966 44.068 68.0276 44.437 67.8516 44.911C67.5378 45.7891 67.2852 46.6879 67.0956 47.601C66.7796 49.253 63.4746 55.107 61.5956 58.184C61.0219 57.2235 60.6009 56.1797 60.3476 55.09C60.1139 53.9213 60.0607 52.7238 60.1896 51.539C60.456 50.239 60.8129 48.9592 61.2576 47.709C61.2396 47.551 61.0636 46.777 59.2576 46.76C57.4516 46.743 55.8826 47.112 55.7066 47.586C55.5306 48.06 55.3376 49.186 54.9506 50.276C54.5816 51.366 50.1866 61.14 49.0436 63.689C48.4636 64.989 47.9536 66.027 47.5846 66.73C47.2156 67.433 47.5666 66.783 47.5316 66.853C47.2156 67.453 47.0396 67.785 47.0396 67.785V67.803C46.7936 68.243 46.5296 68.664 46.4066 68.664C46.192 67.7415 46.204 66.7808 46.4416 65.864C47.0916 62.471 48.6746 57.18 48.6566 56.986C48.6566 56.898 48.9566 55.966 47.6366 55.492C47.3344 55.3437 46.9931 55.2945 46.6613 55.3514C46.3295 55.4084 46.0241 55.5685 45.7886 55.809C45.6826 55.809 45.5956 56.09 45.5956 56.09C45.5956 56.09 47.0196 50.131 42.8706 50.131C40.2706 50.131 36.6826 52.961 34.9066 55.546C33.7816 56.161 31.3906 57.462 28.8596 58.851C27.8926 59.378 26.8906 59.941 25.9416 60.451L25.7486 60.24C20.7186 54.878 11.4196 51.082 11.8066 43.874C11.9476 41.254 12.8616 34.346 29.6676 25.974C43.4326 19.118 54.4546 20.999 56.3676 25.183C59.0926 31.16 50.4786 42.27 36.1676 43.87C30.7176 44.485 27.8526 42.376 27.1316 41.585C26.3756 40.759 26.2706 40.723 25.9886 40.885C25.5316 41.131 25.8126 41.869 25.9886 42.309C26.5367 43.2955 27.2761 44.1629 28.1635 44.8602C29.0509 45.5575 30.0684 46.0708 31.1566 46.37C33.7756 47.231 40.1746 47.706 47.9096 44.718C56.5766 41.36 63.3446 32.043 61.3576 24.255C60.0046 18.955 53.6726 16.031 45.6406 16C41.5891 16.0386 37.5733 16.7614 33.7626 18.138C26.3626 20.775 18.3456 24.888 12.5796 30.285C5.72363 36.685 4.63363 42.274 5.09063 44.595C6.69063 52.875 18.0996 58.272 22.6706 62.263C22.4426 62.386 22.2306 62.509 22.0376 62.615C19.7516 63.739 11.0496 68.292 8.86963 73.109C6.40863 78.559 9.25663 82.479 11.1546 83.009C17.0266 84.644 23.0386 81.709 26.2906 76.874C29.5256 72.04 29.1386 65.764 27.6436 62.898L27.5906 62.792L29.3886 61.735C30.5486 61.049 31.6886 60.417 32.6936 59.871C32.0243 61.7987 31.6278 63.8105 31.5156 65.848C31.2696 68.942 32.5356 72.948 34.2056 74.532C34.8053 75.0422 35.5827 75.294 36.3676 75.232C38.3016 75.232 39.1806 73.632 40.1466 71.716C41.3466 69.378 42.3966 66.671 42.3966 66.671C42.3966 66.671 41.0756 74.009 44.6796 74.009C45.9976 74.009 47.3166 72.304 47.9146 71.425V71.443C47.9146 71.443 47.9496 71.39 48.0206 71.267C48.0936 71.159 48.1656 71.045 48.2316 70.933V70.898C48.7586 69.984 49.9366 67.892 51.6946 64.429C53.9626 59.964 56.1426 54.373 56.1426 54.373C56.3596 55.5957 56.6474 56.8047 57.0046 57.994C57.5365 59.4392 58.1642 60.8474 58.8836 62.209C58.3556 62.947 58.0396 63.369 58.0396 63.369L58.0576 63.387C57.6356 63.95 57.1576 64.547 56.6686 65.145C55.1468 66.8138 53.7374 68.5816 52.4496 70.437C52.2581 70.7487 52.1915 71.1213 52.2633 71.48C52.3351 71.8387 52.5399 72.157 52.8366 72.371C53.5168 72.7268 54.2947 72.8504 55.0516 72.723C56.1887 72.6636 57.3068 72.4078 58.3566 71.967C59.3715 71.6055 60.3303 71.1025 61.2046 70.473C62.1035 69.8522 62.8267 69.0097 63.3041 68.0271C63.7816 67.0446 63.997 65.9553 63.9296 64.865C63.8267 63.4939 63.4739 62.1532 62.8886 60.909C63.0466 60.681 63.2046 60.452 63.3636 60.209C65.1923 57.4782 66.8376 54.6289 68.2886 51.68C68.5056 52.9027 68.7934 54.1117 69.1506 55.301C69.5888 56.5478 70.1238 57.7585 70.7506 58.922C68.6491 60.5486 66.9971 62.6842 65.9506 65.127C64.9136 68.116 65.7226 69.469 67.2506 69.786C68.0828 69.8395 68.9141 69.6696 69.6586 69.294C70.7486 68.9355 71.7752 68.4073 72.7006 67.729C74.4586 66.429 76.1466 64.618 76.0586 62.174C75.9828 61.0451 75.7276 59.9356 75.3026 58.887C78.0731 57.8018 81.0784 57.4571 84.0226 57.887C91.8456 58.801 93.3926 63.687 93.0936 65.727C92.9521 66.4549 92.658 67.1445 92.2307 67.7505C91.8034 68.3565 91.2527 68.8652 90.6146 69.243C90.0696 69.577 89.8936 69.7 89.9466 69.943C90.0166 70.312 90.2626 70.295 90.7376 70.225C91.9124 69.8563 92.9476 69.1398 93.7066 68.1703C94.4656 67.2008 94.9126 66.0239 94.9886 64.795C95.1996 59.96 90.6116 54.686 82.4716 54.739L82.4756 54.738ZM22.1426 75.077C19.5586 77.907 15.9196 78.977 14.3726 78.066C12.7026 77.099 13.3526 72.933 16.5346 69.927C18.4237 68.2251 20.4657 66.701 22.6346 65.374C23.0036 65.146 23.5666 64.812 24.2346 64.407C24.2913 64.3685 24.3501 64.3331 24.4106 64.301C24.5336 64.231 24.6746 64.143 24.8106 64.055C25.3851 65.9639 25.4404 67.9914 24.9707 69.9287C24.501 71.866 23.5235 73.6431 22.1386 75.077H22.1426ZM41.0426 62.226C40.1426 64.426 38.2426 70.066 37.1046 69.75C36.1196 69.486 35.5226 65.215 36.9106 60.995C37.6183 58.9574 38.6583 57.0509 39.9886 55.353C41.4126 53.771 42.9596 53.244 43.3466 53.894C43.8006 54.738 41.6036 60.855 41.0406 62.227L41.0426 62.226ZM56.6356 69.68C56.2486 69.874 55.8976 70.014 55.7356 69.909C55.6126 69.839 55.8936 69.575 55.8936 69.575C55.8936 69.575 57.8446 67.483 58.6186 66.516C59.0586 65.954 59.5856 65.303 60.1486 64.565V64.776C60.1486 67.307 57.7226 68.995 56.6326 69.676L56.6356 69.68ZM68.6586 66.938C68.3776 66.727 68.4126 66.076 69.3586 64.038C70.0075 62.7207 70.9164 61.5485 72.0306 60.592C72.2076 61.0764 72.297 61.5883 72.2946 62.104C72.3087 63.1989 71.9591 64.2675 71.3005 65.1424C70.642 66.0172 69.7117 66.6487 68.6556 66.938H68.6586Z" fill="white"/>
</svg>
