<svg xmlns="http://www.w3.org/2000/svg" width="100" height="92" viewBox="0 0 100 92">
  <g id="sass" transform="translate(-3568 -2034)">
    <rect id="Retângulo_85" data-name="Retângulo 85" width="100" height="92" transform="translate(3568 2034)" fill="#df3661"/>
    <path id="sass_1_" data-name="sass (1)" d="M75.687,41.429a18.541,18.541,0,0,0-8.157,1.9A16.8,16.8,0,0,1,65.7,39.109a11.672,11.672,0,0,1-.158-3.551,28.488,28.488,0,0,1,1.072-3.833c-.018-.158-.194-.932-2-.949s-3.375.352-3.551.826a20.178,20.178,0,0,0-.756,2.69c-.316,1.652-3.621,7.506-5.5,10.583a10.8,10.8,0,0,1-1.248-3.094,11.67,11.67,0,0,1-.158-3.551A28.5,28.5,0,0,1,54.469,34.4c-.018-.158-.194-.932-2-.949s-3.375.352-3.551.826-.369,1.6-.756,2.69c-.369,1.09-4.764,10.864-5.907,13.413-.58,1.3-1.09,2.338-1.459,3.041s-.018.053-.053.123c-.316.6-.492.932-.492.932v.018c-.246.44-.51.861-.633.861a5.864,5.864,0,0,1,.035-2.8c.65-3.393,2.233-8.684,2.215-8.878,0-.088.3-1.02-1.02-1.494A1.6,1.6,0,0,0,39,42.5c-.106,0-.193.281-.193.281s1.424-5.959-2.725-5.959c-2.6,0-6.188,2.83-7.964,5.415-1.125.615-3.516,1.916-6.047,3.305-.967.527-1.969,1.09-2.918,1.6l-.193-.211C13.93,41.569,4.631,37.773,5.018,30.565c.141-2.62,1.055-9.528,17.861-17.9,13.765-6.856,24.787-4.975,26.7-.791,2.725,5.977-5.889,17.087-20.2,18.687-5.45.615-8.315-1.494-9.036-2.285-.756-.826-.861-.862-1.143-.7-.457.246-.176.984,0,1.424a8.486,8.486,0,0,0,5.168,4.061c2.619.861,9.018,1.336,16.753-1.652,8.667-3.358,15.435-12.675,13.448-20.463-1.353-5.3-7.685-8.224-15.717-8.255A35.968,35.968,0,0,0,26.974,4.829c-7.4,2.637-15.417,6.75-21.183,12.147-6.856,6.4-7.946,11.989-7.489,14.31,1.6,8.28,13.009,13.677,17.58,17.668-.228.123-.44.246-.633.352C12.963,50.43,4.261,54.983,2.081,59.8c-2.461,5.45.387,9.37,2.285,9.9,5.872,1.635,11.884-1.3,15.136-6.135,3.235-4.834,2.848-11.11,1.353-13.976l-.053-.106L22.6,48.426c1.16-.686,2.3-1.318,3.305-1.864a21.89,21.89,0,0,0-1.178,5.977c-.246,3.094,1.02,7.1,2.69,8.684a2.975,2.975,0,0,0,2.162.7c1.934,0,2.813-1.6,3.779-3.516,1.2-2.338,2.25-5.045,2.25-5.045S34.287,60.7,37.891,60.7c1.318,0,2.637-1.705,3.235-2.584v.018s.035-.053.106-.176c.073-.108.145-.222.211-.334v-.035c.527-.914,1.705-3.006,3.463-6.469,2.268-4.465,4.448-10.056,4.448-10.056a32.043,32.043,0,0,0,.862,3.621A34.608,34.608,0,0,0,52.095,48.9c-.528.738-.844,1.16-.844,1.16l.018.018c-.422.563-.9,1.16-1.389,1.758a51.062,51.062,0,0,0-4.219,5.292,1.449,1.449,0,0,0,.387,1.934,3.519,3.519,0,0,0,2.215.352,9.868,9.868,0,0,0,3.305-.756,11.447,11.447,0,0,0,2.848-1.494,6.34,6.34,0,0,0,2.725-5.608A11.277,11.277,0,0,0,56.1,47.6c.158-.228.316-.457.475-.7A74.231,74.231,0,0,0,61.5,38.371a32.061,32.061,0,0,0,.862,3.621,25.362,25.362,0,0,0,1.6,3.621,15.63,15.63,0,0,0-4.8,6.205c-1.037,2.989-.228,4.342,1.3,4.659a4.679,4.679,0,0,0,2.408-.492,10.914,10.914,0,0,0,3.042-1.565c1.758-1.3,3.446-3.111,3.358-5.555a10.652,10.652,0,0,0-.756-3.287,17.125,17.125,0,0,1,8.72-1c7.823.914,9.37,5.8,9.071,7.84a5.251,5.251,0,0,1-2.479,3.516c-.545.334-.721.457-.668.7.07.369.316.352.791.282A6.085,6.085,0,0,0,88.2,51.486c.211-4.835-4.377-10.109-12.517-10.056h0ZM15.354,61.768c-2.584,2.83-6.223,3.9-7.77,2.989-1.67-.967-1.02-5.133,2.162-8.139a41.364,41.364,0,0,1,6.1-4.553c.369-.228.932-.562,1.6-.967a1.894,1.894,0,0,1,.176-.106c.123-.07.264-.158.4-.246a11.214,11.214,0,0,1-2.672,11.022Zm18.9-12.851c-.9,2.2-2.8,7.84-3.938,7.524-.985-.264-1.582-4.535-.194-8.755A19.546,19.546,0,0,1,33.2,42.044c1.424-1.582,2.971-2.109,3.358-1.459C37.012,41.429,34.815,47.546,34.252,48.918Zm15.593,7.454c-.387.194-.738.334-.9.229-.123-.07.158-.334.158-.334s1.951-2.092,2.725-3.059c.44-.562.967-1.213,1.53-1.951v.211c0,2.531-2.426,4.219-3.516,4.9ZM61.87,53.629c-.281-.211-.246-.862.7-2.9a10.873,10.873,0,0,1,2.672-3.446,4.349,4.349,0,0,1,.264,1.512,4.946,4.946,0,0,1-3.639,4.834Z" transform="translate(3576.789 2046.309)" fill="#fff" fill-rule="evenodd"/>
  </g>
</svg>
