<svg width="100" height="100" viewBox="0 0 100 100" fill="none" xmlns="http://www.w3.org/2000/svg">
<rect width="100" height="100" rx="10" fill="#DF3661"/>
<path d="M80.7945 43.4743C79.7863 43.0638 78.701 42.8769 77.6135 42.9263C70.7035 42.9263 66.0965 48.2463 66.0965 57.0763C66.0965 67.1673 70.8135 71.2263 76.9555 71.2263C78.2432 71.2636 79.5265 71.0601 80.7395 70.6263V43.4743H80.7945ZM56.2245 57.5143C56.2245 44.7363 64.4515 34.7543 77.9425 34.7543C78.8945 34.7351 79.8468 34.7718 80.7945 34.8643V20.6013C80.7951 20.4561 80.853 20.317 80.9556 20.2144C81.0583 20.1117 81.1974 20.0538 81.3425 20.0533H90.1725C90.6115 20.0533 90.7205 20.2183 90.7205 20.4923V70.6213C90.6882 72.4171 90.7797 74.213 90.9945 75.9963C90.9945 76.3803 90.9945 76.4353 90.6655 76.5963C86.2803 78.6874 81.4838 79.7741 76.6255 79.7773C64.7255 79.7773 56.2255 72.4283 56.2255 57.5113L56.2245 57.5143ZM37.5245 48.6293L52.8805 78.4093C53.1545 78.8483 52.9905 79.2863 52.5515 79.2863H43.0065C42.7619 79.3174 42.5139 79.2636 42.3042 79.1338C42.0945 79.004 41.9358 78.8061 41.8545 78.5733C38.3439 71.3346 34.7609 63.8213 31.1055 56.0333H30.9955C27.7045 63.3823 24.0855 71.3893 20.5755 78.6333C20.4874 78.8186 20.347 78.9741 20.1716 79.0807C19.9963 79.1873 19.7936 79.2403 19.5885 79.2333H10.4885C9.94053 79.2333 9.88852 78.7943 10.1595 78.4653L25.1865 49.5653L10.6495 20.8243C10.581 20.7536 10.5355 20.6637 10.5192 20.5666C10.5029 20.4695 10.5164 20.3697 10.5581 20.2805C10.5997 20.1913 10.6675 20.1168 10.7524 20.0669C10.8373 20.0171 10.9353 19.9942 11.0335 20.0013H20.4665C21.0145 20.0013 21.2895 20.1113 21.4535 20.6013C24.9085 27.9013 28.4185 35.0833 31.7095 42.4323H31.8195C35.0005 35.1933 38.5105 27.8993 41.8555 20.7143C42.1295 20.2753 42.2945 20.0013 42.8425 20.0013H51.6725C52.1115 20.0013 52.2725 20.3303 52.0015 20.8243L37.5245 48.6293Z" fill="white"/>
</svg>
