<svg xmlns="http://www.w3.org/2000/svg" width="100" height="92.297" viewBox="0 0 100 92.297">
  <g id="xd" transform="translate(-5.19 99)">
    <path id="Caminho_25" data-name="Caminho 25" d="M10,10h97v91.68H10Z" transform="translate(-3 -109)" fill="#df3661"/>
    <path id="Caminho_26" data-name="Caminho 26" d="M0,0V92.3H100V0ZM4.167,3.944H95.833V88.353H4.167Z" transform="translate(5.19 -99)" fill="#df3661"/>
    <path id="Caminho_27" data-name="Caminho 27" d="M116.006,78.973a7.53,7.53,0,0,0-3.181-.548c-6.91,0-11.517,5.32-11.517,14.15,0,10.091,4.717,14.15,10.859,14.15a10.347,10.347,0,0,0,3.784-.6V78.973Zm-24.57,14.04c0-12.778,8.227-22.76,21.718-22.76a24.316,24.316,0,0,1,2.852.11V56.1a.55.55,0,0,1,.548-.548h8.83c.439,0,.548.165.548.439V106.12a39.06,39.06,0,0,0,.274,5.375c0,.384,0,.439-.329.6a32.668,32.668,0,0,1-14.04,3.181c-11.9,0-20.4-7.349-20.4-22.266Zm-18.7-8.885,15.356,29.78c.274.439.11.877-.329.877H78.218a1.076,1.076,0,0,1-1.152-.713Q71.8,103.214,66.317,91.532h-.11c-3.291,7.349-6.91,15.356-10.42,22.6a1.053,1.053,0,0,1-.987.6H45.7c-.548,0-.6-.439-.329-.768l15.027-28.9L45.861,56.323a.486.486,0,0,1,.384-.823h9.433c.548,0,.823.11.987.6C60.12,63.4,63.63,70.582,66.921,77.931h.11c3.181-7.239,6.691-14.533,10.036-21.718.274-.439.439-.713.987-.713h8.83c.439,0,.6.329.329.823Z" transform="translate(-31.919 -136.084)" fill="#fff"/>
  </g>
</svg>
