<svg width="169" height="95" viewBox="0 0 169 95" fill="none" xmlns="http://www.w3.org/2000/svg">
<path d="M89.04 21.38C89.04 21.7 88.62 21.86 87.78 21.86C86.98 21.86 86.16 21.46 85.32 20.66C84.52 19.82 84.12 18.82 84.12 17.66C84.12 16.46 84.48 15.38 85.2 14.42C86.72 12.34 89.26 10.86 92.82 9.98C95.38 9.34 97.94 9.02 100.5 9.02H100.98C101.34 9.02 102.32 9.08 103.92 9.2C103.84 8.68 104.04 8.2 104.52 7.76C105.04 7.28 105.62 7.04 106.26 7.04C107.46 7.04 108.04 7.9 108 9.62C112.32 10.38 114.6 11.54 114.84 13.1C114.88 13.46 114.9 13.76 114.9 14C114.9 14.8 114.66 15.2 114.18 15.2C113.74 15.2 113.6 14.72 113.76 13.76C112.76 12.28 110.78 11.24 107.82 10.64C107.1 13.88 103.34 20.92 96.54 31.76C92.02 38.88 86.76 44.84 80.76 49.64C73.88 55.08 67.4 57.8 61.32 57.8C57.6 57.8 54.84 56.86 53.04 54.98C51.24 53.1 50.34 51.02 50.34 48.74C50.34 46.42 50.78 44.44 51.66 42.8C53.78 38.72 56.84 35.54 60.84 33.26C63.8 31.54 66.54 30.68 69.06 30.68C71.78 30.68 73.9 31.34 75.42 32.66C76.98 33.98 77.76 35.64 77.76 37.64C77.76 39.8 76.96 41.76 75.36 43.52C74.36 44.64 73.56 45.2 72.96 45.2C72.8 45.2 72.72 45.14 72.72 45.02C72.72 44.86 72.78 44.66 72.9 44.42C74.34 42.3 75.06 40.34 75.06 38.54C75.06 36.7 74.56 35.2 73.56 34.04C72.4 32.8 70.82 32.18 68.82 32.18C66.86 32.18 64.66 32.98 62.22 34.58C59.22 36.54 56.76 39.48 54.84 43.4C53.84 45.36 53.34 47.4 53.34 49.52C53.34 51.6 54.12 53.28 55.68 54.56C57.24 55.88 59.34 56.54 61.98 56.54C72.14 56.54 82.76 47.62 93.84 29.78C100.48 19.14 103.88 12.62 104.04 10.22C101.64 10.1 100.38 10.04 100.26 10.04C98.38 10.04 95.96 10.56 93 11.6C90.08 12.64 88.18 13.92 87.3 15.44C86.94 16.04 86.76 16.7 86.76 17.42C86.76 18.14 87.14 18.94 87.9 19.82C88.66 20.7 89.04 21.22 89.04 21.38ZM112.996 37.28C112.996 38.68 111.656 41.02 108.976 44.3C105.816 48.18 103.116 50.12 100.876 50.12H99.9159C98.8759 50.12 98.0559 49.58 97.4559 48.5C96.9759 47.74 96.7359 46.9 96.7359 45.98C96.7359 43.58 98.4759 40.22 101.956 35.9C105.476 31.54 108.316 29.36 110.476 29.36C112.516 29.36 113.536 30.44 113.536 32.6C113.536 33.16 113.436 33.88 113.236 34.76C113.276 34.88 113.656 34.94 114.376 34.94C115.096 34.94 116.196 34.56 117.676 33.8C117.636 34.48 116.056 35.46 112.936 36.74C112.976 36.9 112.996 37.08 112.996 37.28ZM109.096 34.16C107.736 34.16 105.796 35.76 103.276 38.96C100.796 42.16 99.5559 44.52 99.5559 46.04C99.5559 47.56 100.036 48.32 100.996 48.32C102.716 48.32 104.896 46.76 107.536 43.64C110.176 40.52 111.496 38.28 111.496 36.92C110.856 36.56 110.056 35.64 109.096 34.16ZM110.851 56.96C112.771 59.36 114.431 60.56 115.831 60.56C118.111 60.56 120.571 58.74 123.211 55.1C125.131 52.42 127.011 49.04 128.851 44.96L131.131 39.44L122.311 46.34C119.591 48.46 117.411 49.52 115.771 49.52C114.891 49.52 114.191 49.22 113.671 48.62C113.151 48.02 112.891 47.34 112.891 46.58C112.891 44.86 114.371 42.04 117.331 38.12C120.291 34.16 122.451 32.18 123.811 32.18C125.171 32.18 125.851 32.64 125.851 33.56C125.851 33.92 124.071 36 120.511 39.8C116.991 43.56 115.231 46.1 115.231 47.42C115.231 47.94 115.571 48.2 116.251 48.2C117.531 48.2 120.091 46.7 123.931 43.7C127.811 40.7 130.731 38.22 132.691 36.26C133.131 35.74 133.751 34.96 134.551 33.92C135.311 33.04 136.151 32.6 137.071 32.6C137.991 32.6 138.451 33.04 138.451 33.92C138.451 34.08 137.551 35.5 135.751 38.18C133.951 40.86 133.011 42.28 132.931 42.44C131.691 44.84 129.791 48.34 127.231 52.94C123.351 59.18 119.471 62.3 115.591 62.3C114.311 62.3 113.191 61.74 112.231 60.62C111.271 59.54 110.811 58.32 110.851 56.96Z" fill="#DF3661"/>
<path d="M57.76 64.84L63.58 64.72C65.02 64.72 65.74 64.82 65.74 65.02C65.74 65.54 62.82 66 56.98 66.4C53.26 73.68 51.4 78.64 51.4 81.28C51.4 83.12 51.98 84.04 53.14 84.04C53.58 84.04 54.12 83.76 54.76 83.2C55.44 82.68 55.84 82.42 55.96 82.42C56.12 82.42 56.2 82.52 56.2 82.72C56 83.44 55.38 84.04 54.34 84.52C53.34 85 52.48 85.24 51.76 85.24C51.08 85.24 50.54 85.2 50.14 85.12C49.18 84.76 48.7 83.6 48.7 81.64C48.7 77.6 50.24 72.46 53.32 66.22L46.12 66.4C40.76 71.64 35.38 76.24 29.98 80.2C21.9 86.08 15.58 89.02 11.02 89.02C10.74 89.02 10.46 89 10.18 88.96C4.02 88.44 0.94 85.28 0.94 79.48C0.94 76.04 2.02 72.4 4.18 68.56C7.06 63.44 11 59.08 16 55.48C21 51.84 25.48 50.02 29.44 50.02C33.4 50.02 35.38 51.48 35.38 54.4C35.38 56.36 34.78 58.54 33.58 60.94C32.38 63.34 31.16 64.86 29.92 65.5C29.8 65.54 29.66 65.56 29.5 65.56C29.38 65.56 29.32 65.52 29.32 65.44L31.3 62.2C32.66 60.08 33.34 58.22 33.34 56.62C33.34 55.02 32.98 53.74 32.26 52.78C31.58 51.78 30.48 51.28 28.96 51.28C25.84 51.28 22.1 53.02 17.74 56.5C13.42 59.98 10.12 64.26 7.84 69.34C5.6 74.42 4.48 78.38 4.48 81.22C4.48 85.5 6.66 87.64 11.02 87.64C15.18 87.64 20.82 84.96 27.94 79.6C31.1 77.24 36.24 72.78 43.36 66.22C41.96 66.3 40.66 66.44 39.46 66.64C36.9 67.12 35.7 67.04 35.86 66.4C36.02 64.92 36.78 64.18 38.14 64.18C40.78 64.5 43 64.66 44.8 64.66C48.24 61.5 53.38 56.32 60.22 49.12C64.82 44.28 67.62 41.86 68.62 41.86C69.06 41.86 69.28 42.2 69.28 42.88C69.28 43.56 69.1 44.62 68.74 46.06C68.38 47.5 67.98 48.38 67.54 48.7C66.62 49.34 65.76 50.22 64.96 51.34C64.16 52.42 63.02 54.48 61.54 57.52C60.06 60.52 58.8 62.96 57.76 64.84ZM62.56 50.2L47.2 64.6H50.74C51.58 64.64 52.62 64.66 53.86 64.66C55.02 62.38 57.92 57.56 62.56 50.2ZM74.4119 82.3C71.4119 82.3 69.9119 80.64 69.9119 77.32C69.9119 75.64 70.3519 73.8 71.2319 71.8C72.1119 69.8 73.0719 68.12 74.1119 66.76C73.9119 66.8 73.6519 66.82 73.3319 66.82C72.3719 66.82 71.5719 66.14 70.9319 64.78L66.4919 70.54C64.0119 73.62 62.5719 75.16 62.1719 75.16C61.9719 75.16 61.8719 75.08 61.8719 74.92C61.8719 74.52 62.2119 73.94 62.8919 73.18C66.3719 69.14 68.8319 65.72 70.2719 62.92C71.1919 59.44 72.3519 57.7 73.7519 57.7C74.6719 57.7 75.1319 58.1 75.1319 58.9C75.1319 59.7 74.6319 60.72 73.6319 61.96L72.1919 63.88C72.1919 64.72 72.8119 65.14 74.0519 65.14C74.7719 65.14 75.5719 64.88 76.4519 64.36L78.0119 63.4C78.0919 63.36 78.2919 63.34 78.6119 63.34C78.9319 63.34 79.2719 63.54 79.6319 63.94C79.9919 64.34 80.1119 64.7 79.9919 65.02L75.8519 70.24C73.2919 73.52 72.0119 76.12 72.0119 78.04C72.0119 79.92 72.8919 80.86 74.6519 80.86C76.4919 80.86 78.7519 79.88 81.4319 77.92C83.0319 76.76 84.4919 75.46 85.8119 74.02C87.0519 72.58 87.7319 71.86 87.8519 71.86C88.1319 71.86 88.2719 72.02 88.2719 72.34C88.2719 72.62 88.0919 72.96 87.7319 73.36L85.8119 75.52C84.7319 76.64 83.5319 77.72 82.2119 78.76C79.0519 81.12 76.4519 82.3 74.4119 82.3ZM105.765 64.06L106.605 63.88C107.045 63.88 107.465 64.06 107.865 64.42C108.265 64.78 108.465 65.06 108.465 65.26C108.465 65.46 107.225 67.4 104.745 71.08C102.265 74.72 101.025 77.26 101.025 78.7C101.025 78.82 101.045 78.94 101.085 79.06C101.285 79.98 101.725 80.44 102.405 80.44C104.485 80.44 108.285 77 113.805 70.12C113.925 69.96 114.065 69.88 114.225 69.88C114.385 69.88 114.465 70.04 114.465 70.36C114.465 70.64 114.285 71.02 113.925 71.5C108.805 78.34 104.905 81.76 102.225 81.76C101.865 81.76 101.525 81.7 101.205 81.58C99.4452 80.9 98.5652 79.58 98.5652 77.62C98.5652 76.94 98.6452 76.26 98.8052 75.58L95.0852 79.18C92.7252 81.26 91.0052 82.3 89.9252 82.3C88.8852 82.3 87.8852 81.96 86.9252 81.28C85.8452 80.48 85.3052 79.42 85.3052 78.1C85.3052 75.18 87.3452 71.7 91.4252 67.66C95.5052 63.58 99.2452 61.54 102.645 61.54C103.965 61.54 104.845 62 105.285 62.92C105.405 63.24 105.505 63.52 105.585 63.76C105.665 63.96 105.725 64.06 105.765 64.06ZM87.8252 78.82C87.8252 80.26 88.3252 80.98 89.3252 80.98C91.6452 80.98 94.8052 78.44 98.8052 73.36L105.165 64.6C104.845 64.04 104.325 63.76 103.605 63.76C101.165 63.76 97.9252 65.66 93.8852 69.46C89.8452 73.22 87.8252 76.34 87.8252 78.82ZM127.312 82.36C127.112 82.4 126.672 82.42 125.992 82.42C125.352 82.42 124.692 82.16 124.012 81.64C123.372 81.12 123.052 80.46 123.052 79.66C123.052 78.82 123.192 77.9 123.472 76.9C123.792 75.9 124.012 75.14 124.132 74.62C119.532 79.98 115.932 82.66 113.332 82.66C111.692 82.66 110.792 81.64 110.632 79.6C110.632 79.44 110.632 79.3 110.632 79.18C110.632 77.46 111.672 75.14 113.752 72.22C112.592 73.26 111.412 74.46 110.212 75.82C110.052 75.98 109.852 76.06 109.612 76.06C109.452 76.06 109.372 75.96 109.372 75.76C109.372 75.56 109.552 75.22 109.912 74.74L118.192 65.02C119.232 63.82 120.292 63.22 121.372 63.22C122.452 63.22 122.992 63.58 122.992 64.3C122.992 64.58 122.872 64.84 122.632 65.08C121.032 66.56 119.012 69.02 116.572 72.46C114.172 75.9 112.972 78.44 112.972 80.08C112.972 80.8 113.212 81.16 113.692 81.16C115.372 81.16 117.812 79.5 121.012 76.18C122.132 75.06 124.212 72.6 127.252 68.8C130.292 64.96 132.292 63.04 133.252 63.04C134.692 63.04 135.412 63.6 135.412 64.72C135.412 65.12 134.572 66.28 132.892 68.2C130.612 70.96 128.872 73.22 127.672 74.98C126.472 76.7 125.872 78.1 125.872 79.18C125.872 80.26 126.172 80.8 126.772 80.8C127.052 80.8 127.372 80.72 127.732 80.56C130.492 79.36 133.792 76.56 137.632 72.16C137.872 71.88 138.112 71.74 138.352 71.74C138.592 71.74 138.712 71.88 138.712 72.16C138.712 72.4 138.572 72.68 138.292 73C136.572 75 134.552 77.02 132.232 79.06C129.912 81.06 128.272 82.16 127.312 82.36ZM148.24 57.4C148.84 57.4 149.4 57.6 149.92 58C150.48 58.4 150.76 58.86 150.76 59.38C150.76 59.86 150.5 60.3 149.98 60.7C149.5 61.06 148.96 61.24 148.36 61.24C147.76 61.24 147.2 61.04 146.68 60.64C146.2 60.2 145.96 59.7 145.96 59.14C145.96 57.98 146.72 57.4 148.24 57.4ZM147.1 65.68C147.1 65.92 145.52 68.76 142.36 74.2C139.28 80.08 136.9 84.18 135.22 86.5C131.58 91.7 128.16 94.3 124.96 94.3C123.76 94.3 122.66 93.9 121.66 93.1C120.62 92.34 120.1 91.56 120.1 90.76C120.1 90 120.28 89.62 120.64 89.62C120.68 89.62 121.1 90.12 121.9 91.12C122.66 92.16 123.56 92.68 124.6 92.68C127.8 92.68 131.44 89.06 135.52 81.82C138.04 77.3 139.76 73.64 140.68 70.84C140.2 71.4 139.36 72.22 138.16 73.3C137 74.38 136.28 74.92 136 74.92C135.76 74.92 135.64 74.86 135.64 74.74C135.64 74.38 135.96 73.92 136.6 73.36C137.24 72.8 138.1 71.74 139.18 70.18C140.26 68.62 140.9 67.76 141.1 67.6L143.08 65.5C143.88 64.74 144.74 64.36 145.66 64.36C146.62 64.36 147.1 64.8 147.1 65.68ZM163.73 69.28C163.73 70.68 162.39 73.02 159.71 76.3C156.55 80.18 153.85 82.12 151.61 82.12H150.65C149.61 82.12 148.79 81.58 148.19 80.5C147.71 79.74 147.47 78.9 147.47 77.98C147.47 75.58 149.21 72.22 152.69 67.9C156.21 63.54 159.05 61.36 161.21 61.36C163.25 61.36 164.27 62.44 164.27 64.6C164.27 65.16 164.17 65.88 163.97 66.76C164.01 66.88 164.39 66.94 165.11 66.94C165.83 66.94 166.93 66.56 168.41 65.8C168.37 66.48 166.79 67.46 163.67 68.74C163.71 68.9 163.73 69.08 163.73 69.28ZM159.83 66.16C158.47 66.16 156.53 67.76 154.01 70.96C151.53 74.16 150.29 76.52 150.29 78.04C150.29 79.56 150.77 80.32 151.73 80.32C153.45 80.32 155.63 78.76 158.27 75.64C160.91 72.52 162.23 70.28 162.23 68.92C161.59 68.56 160.79 67.64 159.83 66.16Z" fill="#DF3661"/>
</svg>
