<svg width="140" height="140" viewBox="0 0 140 140" fill="none" xmlns="http://www.w3.org/2000/svg">
<path d="M138.5 67.27C138.559 67.27 138.624 67.27 138.693 67.27C138.842 67.27 138.991 67.286 139.139 67.3185C139.297 67.3615 139.441 67.453 139.57 67.593C139.6 67.636 139.63 67.6845 139.659 67.738C139.689 67.803 139.704 67.873 139.704 67.948C139.684 67.9909 139.654 68.0395 139.614 68.0935C139.585 68.158 139.55 68.2065 139.511 68.239C139.332 68.282 139.149 68.2924 138.961 68.2709C138.871 68.2709 138.772 68.2709 138.663 68.2709C137.574 68.196 136.484 68.1094 135.394 68.013C133.383 67.8515 131.377 67.7005 129.376 67.5605C121.113 66.99 112.955 66.678 104.9 66.624C96.8455 66.581 88.6768 66.7045 80.3945 66.9955C79.5226 67.017 78.6511 67.076 77.7791 67.173C76.9569 67.2375 76.1296 67.2805 75.2972 67.302C74.4947 67.3345 73.8657 67.7165 73.4102 68.449C71.3594 71.4094 69.1352 74.2138 66.7374 76.8617C65.0533 78.7351 63.2947 80.4146 61.462 81.9C59.639 83.3965 57.717 84.5804 55.6962 85.4524C53.6849 86.3354 51.5844 86.7713 49.3951 86.7603C47.2056 86.7499 44.922 86.1628 42.5443 85.0004C41.4347 84.4834 40.4539 83.7354 39.6019 82.756C38.2248 81.055 38.0712 79.2196 39.1412 77.2491C39.9041 75.9792 40.8849 74.9292 42.0836 74.1002C43.8967 72.7978 46.0118 71.6943 48.4292 70.7904C50.8464 69.8859 53.3978 69.1484 56.0822 68.578C58.7772 68.018 61.4225 67.5715 64.0181 67.2375C66.6136 66.904 68.9815 66.6565 71.1215 66.495C71.9935 66.4195 72.6671 66.005 73.1424 65.2516C74.9061 62.4742 76.7834 59.2228 78.7749 55.4979C80.776 51.7626 82.6979 47.8387 84.5407 43.7263C86.3836 39.6032 87.9687 35.5932 89.2962 31.6962C90.6236 27.7991 91.5154 24.2897 91.9709 21.1677C92.0997 20.2203 92.0703 19.273 91.8821 18.3257C91.5255 16.8078 90.6536 15.9412 89.2662 15.7258C89.0684 15.7044 88.8802 15.6936 88.7017 15.6936C88.2857 15.6936 87.8744 15.7528 87.4686 15.8712C85.6749 16.2695 83.4608 17.1576 80.8257 18.5356C78.19 19.9028 75.4215 21.6091 72.5185 23.6545C69.6257 25.6891 66.8515 27.9229 64.1966 30.3558C61.5513 32.7781 59.3123 35.2433 57.4792 37.7516C55.6465 40.2599 54.4823 42.6875 53.9873 45.0343C53.5906 47.0474 54.2444 48.5168 55.9488 49.4427C57.3158 50.0993 58.7721 50.39 60.3177 50.3147C61.8734 50.2285 63.3591 50.0294 64.7759 49.7172C65.6478 49.5127 66.5198 49.4104 67.3912 49.4104C67.758 49.4104 68.1146 49.4319 68.4615 49.475C68.5508 49.475 68.635 49.5072 68.7141 49.5718C68.7933 49.6257 68.8181 49.7225 68.7882 49.8625C68.7486 50.0993 68.6299 50.2285 68.4316 50.2501C67.233 50.3685 66.0242 50.5353 64.8058 50.7507C63.3196 51.0413 61.8288 51.2351 60.3324 51.332C58.8467 51.4181 57.3752 51.2512 55.9189 50.8314C55.1757 50.6161 54.4874 50.2824 53.8534 49.8302C52.3276 48.7214 51.7082 47.182 51.9958 45.2119C52.4315 42.7036 53.6058 40.0984 55.5176 37.3964C57.4396 34.6943 59.7978 32.0675 62.5917 29.5162C65.3952 26.954 68.3474 24.6072 71.4482 22.4757C74.5591 20.3442 77.5215 18.5895 80.3352 17.2115C83.1489 15.8227 85.5263 14.9615 87.4686 14.6278C87.9439 14.5309 88.4191 14.4932 88.8949 14.5148C89.7273 14.4932 90.5344 14.6117 91.317 14.87C92.7536 15.3653 93.6605 16.4202 94.0369 18.035C94.3636 19.7682 94.1657 22.1312 93.4424 25.1239C92.7292 28.1167 91.6741 31.4485 90.2772 35.1195C88.8802 38.7905 87.3245 42.4829 85.6105 46.197C83.9067 49.9002 82.2424 53.3074 80.6177 56.4183C78.993 59.5298 77.591 62.0327 76.4121 63.9271C76.0849 64.4331 75.7679 64.9446 75.461 65.4616C75.4012 65.6016 75.4012 65.7306 75.461 65.8491C75.53 65.9676 75.6391 66.0265 75.7877 66.0265H75.8176C76.2138 66.0265 76.6099 66.0155 77.0061 65.994C78.1555 65.951 79.31 65.8921 80.4691 65.8165C82.9059 65.698 85.3483 65.6016 87.7952 65.5261C104.727 64.9876 121.628 65.5691 138.5 67.27ZM69.546 70.3704C69.6551 70.2194 69.7743 70.0634 69.9031 69.9019C70.1207 69.6219 70.3439 69.3154 70.5717 68.9814C70.7994 68.648 71.0028 68.255 71.1809 67.803C70.9831 67.803 70.7994 67.803 70.631 67.803C70.5615 67.803 70.4926 67.803 70.4231 67.803C70.3439 67.803 70.2496 67.803 70.1405 67.803C69.4375 67.8995 68.7289 67.9965 68.0157 68.0935C67.094 68.212 66.1779 68.3305 65.2664 68.449C63.1461 68.6639 60.6895 69.0465 57.8956 69.5954C55.1113 70.1549 52.3773 70.9139 49.6923 71.8718C47.0174 72.8303 44.818 74.0302 43.0942 75.4732C42.5097 75.9792 41.9747 76.5497 41.4892 77.1847C40.0527 79.1546 40.1963 80.9685 41.9202 82.6265C43.9016 84.3704 45.9425 85.3234 48.0428 85.4849C50.153 85.6569 52.2484 85.2589 54.3286 84.2899C56.4094 83.3209 58.3957 82.0235 60.2883 80.398C62.1905 78.7726 63.9288 77.0661 65.5043 75.2792C67.0894 73.4923 68.4367 71.8558 69.546 70.3704ZM88.791 61.7637H88.7463C87.3098 61.7422 86.3638 61.3977 85.9078 60.7302C85.4523 60.0517 85.472 59.1528 85.9676 58.0333C86.3836 57.1828 86.9086 56.4398 87.5426 55.8049C87.7607 55.5894 87.9834 55.4174 88.2112 55.2884C88.4394 55.1589 88.6966 55.0944 88.9842 55.0944C89.1526 55.0621 89.3459 55.0944 89.5635 55.1914C89.633 55.2129 89.7025 55.2399 89.772 55.2719C89.9404 55.2399 90.1037 55.1804 90.262 55.0944C90.3015 55.0621 90.3563 55.0352 90.4258 55.0137C90.7525 54.8737 91.0994 54.8145 91.4657 54.8361C91.6143 54.8361 91.768 54.8361 91.9268 54.8361C92.5111 54.933 92.9519 55.2019 93.2491 55.6434C93.5464 56.0739 93.6504 56.6013 93.5611 57.2258C93.5119 57.6028 93.4028 57.9578 93.2344 58.2918C92.0952 60.5092 90.6434 61.6667 88.8802 61.7637H88.791ZM91.139 55.9824C90.3563 55.9504 89.6578 56.1979 89.0436 56.7254C88.4394 57.2424 87.9885 57.8398 87.6912 58.5178C87.394 59.1957 87.3098 59.7557 87.4386 60.1972C87.5771 60.6277 87.9936 60.7462 88.687 60.5522C89.4697 60.2943 90.158 59.8098 90.7525 59.0993C91.3571 58.3888 91.7233 57.7158 91.8522 57.0809C91.9912 56.4349 91.7533 56.0689 91.139 55.9824ZM106 57.1773C106.129 57.4468 105.916 57.8663 105.361 58.4368C104.806 58.9968 103.83 59.6802 102.433 60.4877C101.908 60.7247 101.526 60.9132 101.289 61.0532C101.051 61.1927 100.878 61.3707 100.769 61.5857C100.66 61.8012 100.541 62.1346 100.412 62.5872C100.303 62.9206 100.159 63.3676 99.9808 63.9271C99.7434 64.6161 99.5055 65.3265 99.2676 66.0591C98.8319 67.555 98.3115 69.0299 97.7073 70.4834C97.1128 71.9473 96.3403 73.2233 95.3892 74.3102C94.4381 75.3977 93.2146 76.1192 91.7183 76.4742C90.2128 76.7861 88.7565 76.8346 87.3494 76.6197C85.9428 76.4042 84.5656 75.9792 83.2184 75.3437C82.6731 75.0747 82.1831 74.7192 81.7468 74.2783C81.0235 73.4708 80.9692 72.5663 81.5835 71.5654C81.9102 71.0698 82.2916 70.6234 82.7278 70.2249C83.5998 69.4604 84.5108 68.7609 85.4619 68.126C87.2357 66.963 89.0486 65.8976 90.9011 64.9286C92.7536 63.9596 94.6263 63.0231 96.5184 62.1187C96.6472 62.0542 96.7907 61.9842 96.9495 61.9087C97.4649 61.6507 97.9944 61.3922 98.5397 61.1337C98.9161 60.9832 99.1687 60.7087 99.2975 60.3102C99.3371 60.1702 99.3468 60.0413 99.327 59.9228C99.3072 59.8472 99.2676 59.8043 99.2083 59.7932C99.1586 59.7828 99.0992 59.7987 99.0297 59.8417C98.8415 59.9602 98.6488 60.0947 98.4504 60.2457C98.3414 60.3102 98.2227 60.3907 98.0939 60.4877C97.4101 60.9182 96.702 61.1067 95.9685 61.0532C94.8094 61.0532 94.22 60.4877 94.2002 59.3572C94.1804 58.4318 94.324 57.5543 94.6314 56.7254C94.9484 55.8964 95.3938 55.116 95.9685 54.3839C96.0278 54.3085 96.1125 54.2493 96.2211 54.2063C96.3302 54.1524 96.4392 54.1148 96.5483 54.0932C96.5681 54.0932 96.5929 54.0825 96.6223 54.0609C96.8404 54.0394 97.0089 54.0986 97.1275 54.2386C97.2468 54.3785 97.2716 54.5562 97.2021 54.7715C97.0733 55.0729 96.9444 55.3799 96.8156 55.6919C96.7065 55.9289 96.598 56.1654 96.4889 56.4024C96.0527 57.3283 95.8549 58.2973 95.8944 59.3093C95.9142 59.5242 95.9984 59.6802 96.147 59.7772C96.3053 59.8743 96.4839 59.8743 96.6822 59.7772C97.2665 59.5187 97.7768 59.1528 98.2126 58.6793C99.3914 57.5168 100.362 56.1764 101.125 54.6584C101.234 54.4431 101.358 54.2601 101.497 54.1094C101.646 53.9587 101.839 53.8726 102.076 53.8511C102.384 53.8188 102.616 53.8941 102.775 54.0771C102.943 54.2493 102.993 54.4808 102.923 54.7715C102.646 55.7404 102.354 56.6983 102.047 57.6458C102.027 57.7213 102.002 57.7913 101.972 57.8558C101.893 58.0708 101.819 58.2973 101.75 58.5338C101.68 58.7708 101.646 58.9808 101.646 59.1638C101.646 59.3357 101.715 59.4223 101.854 59.4223C102.398 59.3038 103.191 58.8298 104.231 58.0008C105.282 57.1724 105.871 56.8979 106 57.1773ZM98.2126 63.6526C98.2126 63.5991 98.2273 63.5506 98.2572 63.5076C98.3165 63.3891 98.3515 63.2596 98.3612 63.1202C98.3713 62.9802 98.3363 62.8346 98.2572 62.6842C98.1877 62.6842 98.1334 62.6842 98.0939 62.6842C97.9549 62.7161 97.8311 62.7542 97.722 62.7972C97.5044 62.8936 97.2863 63.0017 97.0682 63.1202C95.3248 63.9921 93.5809 64.8906 91.8375 65.8165C90.0936 66.7425 88.3846 67.7275 86.7102 68.7714C85.6902 69.4069 84.7289 70.1494 83.8275 70.9998C83.0941 71.7109 82.7425 72.3298 82.7725 72.8573C82.8019 73.3953 83.2331 73.8798 84.0655 74.3102C85.9575 75.3762 87.9936 75.8122 90.1732 75.6182C91.6589 75.4567 92.8677 74.8487 93.799 73.7938C94.7202 72.7388 95.4734 71.4739 96.0578 69.9989C96.6523 68.535 97.1676 67.071 97.6033 65.6065C97.7915 64.9176 97.9944 64.2666 98.2126 63.6526Z" fill="#F7F7F7"/>
<path d="M102.134 97.682C100.241 97.445 98.3342 97.3265 96.4123 97.3265C95.5702 97.2945 94.7135 97.2675 93.8415 97.246C85.9057 96.8905 77.9505 96.799 69.9751 96.9715C69.5789 96.9715 69.2518 96.9715 68.9946 96.9715C68.5584 96.939 68.2413 96.9445 68.0435 96.9875C67.8452 97.0195 67.6864 97.138 67.5677 97.3425C67.449 97.5365 67.31 97.8595 67.1518 98.3115C67.0427 98.57 66.9139 98.893 66.7652 99.2804C65.4378 102.424 64.2194 105.621 63.1095 108.872C62.3862 110.972 61.8267 113.124 61.43 115.331C61.2814 116.02 61.2271 116.688 61.2667 117.334C61.3164 117.99 61.5888 118.577 62.0844 119.094C62.1533 119.148 62.1782 119.212 62.1584 119.288C62.1386 119.374 62.094 119.449 62.0245 119.514C61.9555 119.589 61.881 119.638 61.8018 119.659C60.623 119.853 59.9144 119.395 59.6765 118.286C59.538 117.662 59.5131 117.022 59.6024 116.365C59.6024 116.311 59.6024 116.273 59.6024 116.252C59.6917 115.121 59.8748 113.996 60.1523 112.877C60.4394 111.768 60.7564 110.654 61.1034 109.535C62.2228 106.176 63.4565 102.86 64.8037 99.5874C64.8732 99.4474 64.9275 99.3075 64.967 99.1675C65.0365 99.006 65.1106 98.8389 65.1902 98.667C65.2988 98.43 65.3982 98.193 65.4875 97.9565C65.5763 97.7195 65.6113 97.472 65.5915 97.2135C65.4824 97.1165 65.3734 97.0575 65.2643 97.036C65.1552 97.0145 65.0462 97.0145 64.9376 97.036C64.9173 97.036 64.893 97.036 64.8631 97.036C63.9318 97.036 62.9954 97.0465 62.0544 97.068C61.7968 97.068 61.5244 97.068 61.2373 97.068C60.8903 97.0895 60.5981 97.208 60.3602 97.4235C60.1223 97.639 59.8946 97.9025 59.6765 98.2145C59.3894 98.613 59.1023 99.0115 58.8147 99.4094C57.5962 101.1 56.3677 102.774 55.1295 104.432C53.2963 106.843 51.3794 109.168 49.3782 111.408C47.3869 113.647 45.2717 115.746 43.0326 117.705C40.2191 120.224 37.232 122.442 34.0716 124.358C29.237 127.178 24.1694 128.513 18.8691 128.363C13.8759 128.244 9.3731 126.781 5.36073 123.971C4.23129 123.185 3.23067 122.237 2.35884 121.129C1.77432 120.343 1.31363 119.492 0.97679 118.577C0.630041 117.673 0.456665 116.688 0.456665 115.622C0.506201 114.341 0.778649 113.157 1.27401 112.07C1.75946 110.972 2.4381 109.976 3.30993 109.082C4.50869 107.823 5.82633 106.757 7.2629 105.885C8.65981 105.002 10.1013 104.232 11.5874 103.576C13.0635 102.908 14.5546 102.316 16.0604 101.799C18.4976 100.949 20.9595 100.233 23.4462 99.6519C25.9329 99.0704 28.4295 98.5755 30.936 98.1665C36.8803 97.2725 42.8395 96.6805 48.8135 96.39C51.8649 96.1856 54.9063 96.083 57.9381 96.083C58.77 96.1045 59.4142 95.7226 59.8697 94.9366C60.6722 93.7097 61.4797 92.4767 62.2923 91.2387C63.5503 89.3443 64.789 87.4174 66.0074 85.4579C71.6744 76.2642 77.1034 66.92 82.2946 57.4254C82.7308 56.6179 83.1569 55.7994 83.5728 54.9707C83.7707 54.5508 83.9792 54.1256 84.1968 53.695C84.4544 53.146 84.8658 52.8391 85.4304 52.7745C85.7373 52.7745 85.9605 52.8714 86.0989 53.0652C86.2476 53.2482 86.2673 53.4958 86.1583 53.808C86.0497 54.0664 85.9255 54.314 85.787 54.5508C84.9449 56.1869 84.1968 57.8449 83.5429 59.5243C83.2954 60.1163 83.0524 60.6978 82.815 61.2682C80.5263 66.6615 78.228 72.0604 75.9195 77.4647C74.1558 81.6311 72.3779 85.8079 70.5843 89.9952C70.0694 91.2332 69.5591 92.4662 69.0539 93.6931C68.9449 93.9516 68.8358 94.1991 68.7268 94.4361C68.707 94.4901 68.6872 94.5491 68.6674 94.6136C68.5979 94.7861 68.5386 94.9581 68.4889 95.1306C68.4493 95.2921 68.4645 95.4536 68.5335 95.6151C68.6821 95.7336 68.8556 95.7981 69.0539 95.8086C69.2518 95.8196 69.4354 95.8251 69.6038 95.8251C69.7423 95.803 69.866 95.7926 69.9751 95.7926C70.7973 95.8141 71.6247 95.8141 72.457 95.7926C73.5862 95.7926 74.7209 95.803 75.8602 95.8251C82.042 95.943 88.2294 96.0886 94.4213 96.2611C96.4518 96.3041 98.4681 96.3956 100.469 96.5356C100.648 96.5571 100.836 96.5675 101.034 96.5675C101.143 96.5675 101.262 96.5675 101.391 96.5675C101.649 96.5675 101.896 96.5945 102.134 96.6486C102.382 96.6916 102.614 96.783 102.832 96.923C102.872 96.955 102.901 97.009 102.921 97.0845C102.941 97.149 102.941 97.203 102.921 97.246C102.921 97.321 102.892 97.391 102.832 97.4555C102.783 97.5095 102.738 97.5475 102.699 97.569C102.52 97.644 102.332 97.682 102.134 97.682ZM57.8341 97.8595C57.9031 97.7085 57.9082 97.574 57.8489 97.4555C57.7991 97.3375 57.7099 97.278 57.5815 97.278C57.3832 97.2565 57.1752 97.2565 56.9571 97.278C56.8481 97.278 56.739 97.278 56.6305 97.278C49.1503 97.375 41.6655 97.935 34.1757 98.9575C31.3125 99.3345 28.4642 99.8294 25.6307 100.443C22.7973 101.057 19.9886 101.826 17.2047 102.752C15.7186 103.247 14.2524 103.818 12.8059 104.464C11.3595 105.099 9.94771 105.858 8.57063 106.741C7.13411 107.613 5.82633 108.679 4.64739 109.938C3.2703 111.478 2.49754 113.114 2.32912 114.847C2.15079 116.591 2.5768 118.27 3.60714 119.885C4.36999 121.016 5.28145 121.984 6.34154 122.792C10.2053 125.774 14.8072 127.291 20.1472 127.345C21.5143 127.345 23.0846 127.151 24.858 126.764C26.6215 126.366 28.3255 125.779 29.9701 125.004C31.6147 124.24 33.2097 123.336 34.7552 122.291C38.5695 119.74 42.1014 116.769 45.3509 113.377C47.5998 111.085 49.72 108.673 51.7112 106.143C53.7026 103.603 55.6347 101.019 57.507 98.3925C57.616 98.1985 57.7251 98.021 57.8341 97.8595ZM66.9286 94.5166C68.3651 90.9642 69.8463 87.4223 71.372 83.8915C71.4415 83.698 71.6693 83.1435 72.0558 82.2286C72.452 81.3026 72.9029 80.2311 73.4081 79.0146C73.923 77.7877 74.3937 76.6302 74.8198 75.5433C75.2459 74.4558 75.5431 73.6428 75.7115 73.1048C75.8896 72.5559 75.8404 72.5019 75.5629 72.9434C75.4934 73.0404 75.4391 73.1368 75.3996 73.2338C75.1617 73.6108 74.9339 73.9873 74.7158 74.3643C72.9029 77.4217 71.0799 80.4736 69.2472 83.52C67.414 86.5669 65.5169 89.5703 63.5554 92.5307C63.3672 92.8107 63.1739 93.1067 62.9756 93.4186C62.5992 93.9786 62.2279 94.5436 61.8612 95.1141C61.7126 95.3511 61.6679 95.55 61.7273 95.7115C61.7968 95.8626 61.9505 95.9381 62.1883 95.9381C62.5845 95.9381 62.9756 95.9271 63.3621 95.9056C63.9764 95.8515 64.5856 95.8251 65.1902 95.8251C65.6559 95.8466 66.017 95.7386 66.2747 95.5021C66.5324 95.2651 66.7505 94.9366 66.9286 94.5166ZM76.0534 102.526C75.9642 103.269 75.642 103.753 75.0871 103.979C74.5327 104.206 74.3491 103.909 74.5373 103.091C74.7356 102.273 74.3988 102.069 73.5268 102.478C72.6549 102.876 71.9366 103.382 71.372 103.996C70.5001 104.965 69.7276 106.009 69.0539 107.128C68.9844 107.225 68.9302 107.306 68.8901 107.371C68.6923 107.683 68.4939 107.979 68.2961 108.259C68.1673 108.453 68.0186 108.576 67.8502 108.63C67.6717 108.673 67.4936 108.679 67.3151 108.646C67.1467 108.625 67.0178 108.555 66.9286 108.436C66.8398 108.318 66.8297 108.178 66.8991 108.017C67.0082 107.726 67.1365 107.43 67.2852 107.128C68.1769 105.331 69.0833 103.527 70.005 101.719C70.0248 101.697 70.0344 101.676 70.0344 101.654C70.1633 101.374 70.317 101.116 70.4955 100.879C70.6934 100.642 70.9211 100.545 71.1788 100.588C71.4365 100.631 71.6099 100.798 71.6992 101.089C71.8078 101.466 71.9021 101.681 71.9813 101.735C72.0604 101.778 72.2389 101.74 72.5164 101.622C73.1109 101.385 73.6902 101.218 74.2552 101.121C74.8198 101.024 75.2804 101.051 75.637 101.202C76.0037 101.342 76.1422 101.783 76.0534 102.526ZM87.1246 104.222C87.3625 104.362 87.3823 104.712 87.1839 105.271C86.8968 105.68 86.5894 106.063 86.2628 106.418C85.9356 106.773 85.579 107.091 85.1925 107.371C85.1631 107.371 85.1478 107.381 85.1478 107.403C84.8902 107.597 84.6178 107.764 84.3307 107.904C81.9628 108.829 80.7541 108.286 80.7049 106.273C79.7436 107.177 79.0994 107.731 78.7728 107.936C77.9901 108.442 77.143 108.668 76.2315 108.614C75.5578 108.571 75.1023 108.35 74.8644 107.952C74.6169 107.543 74.6367 106.994 74.9238 106.305C75.3595 105.218 75.9789 104.249 76.7813 103.398C77.7228 102.451 78.7677 101.692 79.9171 101.121C80.5314 100.787 81.1751 100.658 81.8487 100.734C82.5228 100.777 82.9286 101.191 83.0676 101.977C83.127 102.214 83.0722 102.424 82.9038 102.607C82.6862 102.822 82.4336 102.871 82.146 102.752C82.1262 102.752 82.0968 102.747 82.0572 102.736C82.0273 102.725 82.0024 102.709 81.9826 102.688C81.6955 102.257 81.4028 102.079 81.1061 102.155C80.8185 102.219 80.5116 102.359 80.1844 102.575C78.6586 103.543 77.5244 104.895 76.7813 106.628C76.7418 106.703 76.7169 106.789 76.7073 106.886C76.6971 106.972 76.722 107.042 76.7813 107.096C76.9599 107.161 77.1577 107.15 77.3758 107.064C77.5939 106.967 77.8115 106.832 78.0297 106.66C78.2478 106.477 78.4309 106.326 78.5795 106.208C78.5993 106.176 78.6094 106.16 78.6094 106.16C79.3323 105.503 80.0409 104.83 80.7343 104.141C81.0417 103.786 81.4231 103.587 81.8786 103.543C82.5325 103.543 82.8049 103.861 82.6958 104.496C82.6365 104.733 82.572 104.97 82.5026 105.207C82.2454 106.229 82.2352 106.832 82.4731 107.015C82.711 107.188 83.0722 107.188 83.5581 107.015C84.0532 106.832 84.5437 106.493 85.0291 105.998C85.5242 105.492 85.9407 105.034 86.2775 104.625C86.6143 104.206 86.8968 104.071 87.1246 104.222ZM86.5894 109.583C85.6485 109.583 85.1778 109.05 85.1778 107.984C85.1778 106.682 85.9554 104.383 87.5106 101.089C87.5705 100.949 87.6795 100.879 87.8378 100.879C88.4617 100.879 88.7741 101.148 88.7741 101.686C88.7741 101.88 88.7194 102.117 88.6103 102.397C88.5707 102.472 88.0508 103.893 87.05 106.66C86.8918 107.112 86.8126 107.446 86.8126 107.661C86.8126 107.898 86.9115 108.017 87.1094 108.017C87.8327 108.017 89.7298 106.063 92.8012 102.155C93.1973 101.627 93.5889 101.363 93.9755 101.363C94.54 101.363 94.8226 101.589 94.8226 102.042C94.8226 102.214 94.6491 102.865 94.3021 103.996C93.8268 105.535 93.5889 106.423 93.5889 106.66C93.5889 107.015 93.698 107.193 93.9156 107.193C94.4609 107.193 96.0506 106.138 98.6862 104.028C98.8349 103.888 98.9637 103.818 99.0723 103.818C99.3203 103.818 99.4441 104.044 99.4441 104.496C99.4441 104.615 99.4096 104.712 99.3401 104.787C97.9431 106.09 96.7542 107.08 95.7736 107.758C94.8819 108.383 94.0891 108.695 93.3957 108.695H93.1877C92.1671 108.458 91.6568 107.591 91.6568 106.095C90.5673 107.139 89.6608 107.984 88.9375 108.63C88.2243 109.265 87.4416 109.583 86.5894 109.583ZM101.673 98.7475C101.346 99.103 101.054 99.2749 100.796 99.2645C100.549 99.243 100.479 98.936 100.588 98.344C100.747 97.472 101.108 96.6805 101.673 95.9701C101.782 95.8515 101.911 95.7815 102.059 95.76C102.218 95.7385 102.371 95.7601 102.52 95.8251C102.59 95.8786 102.654 95.9486 102.713 96.0345C102.783 96.11 102.817 96.1856 102.817 96.2611C102.688 97.2295 102.307 98.0585 101.673 98.7475ZM105.329 104.109C105.398 104.109 105.457 104.125 105.507 104.157C105.567 104.189 105.606 104.232 105.626 104.286C105.626 104.329 105.616 104.389 105.596 104.464C105.577 104.529 105.542 104.588 105.492 104.642C105.255 104.857 104.992 105.056 104.705 105.239C104.209 105.551 103.719 105.874 103.234 106.208C101.955 107.08 100.662 107.893 99.3548 108.646C98.3444 109.238 97.6459 110.094 97.2594 111.214C96.3874 113.442 95.4713 115.644 94.5101 117.818C94.0942 118.841 93.6386 119.837 93.1431 120.806C92.6378 121.775 92.0581 122.711 91.4042 123.615C90.1361 125.392 88.5215 126.42 86.5595 126.7C84.9546 126.915 83.3994 126.807 81.8934 126.377C80.6947 126.022 79.5803 125.499 78.5496 124.81C78.1636 124.531 77.807 124.224 77.4798 123.89C75.9738 122.404 76.1473 120.854 77.9997 119.239C78.614 118.722 79.2582 118.26 79.9318 117.85C81.0016 117.194 82.0815 116.58 83.1716 116.01C84.5584 115.277 85.9407 114.556 87.3178 113.846C89.606 112.683 91.8749 111.51 94.1241 110.326C94.5598 110.089 94.9164 109.901 95.1939 109.761C95.59 109.567 95.8776 109.405 96.0557 109.276C96.2241 109.147 96.3631 108.991 96.4721 108.808C96.5807 108.614 96.7095 108.313 96.8581 107.904C96.9672 107.57 97.1457 107.134 97.3933 106.596C97.76 105.691 98.1065 104.792 98.4336 103.899C98.671 103.253 98.9089 102.623 99.1468 102.009C99.3051 101.611 99.5034 101.256 99.7413 100.944C99.9792 100.664 100.261 100.615 100.588 100.798C100.826 100.938 100.915 101.153 100.856 101.444C100.766 101.724 100.603 102.209 100.365 102.898C100.167 103.49 99.964 104.109 99.756 104.755C99.5481 105.39 99.3847 105.939 99.2655 106.402C99.1468 106.865 99.1073 107.139 99.1468 107.225C99.1965 107.301 99.335 107.285 99.5628 107.177C99.7905 107.069 100.167 106.865 100.692 106.563C100.712 106.563 100.722 106.563 100.722 106.563C101.554 106.057 102.371 105.557 103.174 105.061C103.481 104.878 103.788 104.679 104.096 104.464C104.115 104.464 104.125 104.464 104.125 104.464C104.323 104.345 104.517 104.243 104.705 104.157C104.903 104.071 105.111 104.055 105.329 104.109ZM95.1939 112.07C95.3227 111.801 95.3227 111.548 95.1939 111.311C94.9362 111.289 94.6983 111.365 94.4807 111.537C94.431 111.558 94.3767 111.58 94.3168 111.602C93.3957 112.075 92.4791 112.548 91.5681 113.022C89.1703 114.249 86.7827 115.482 84.4047 116.72C83.097 117.431 81.7894 118.19 80.4817 118.997C79.9369 119.352 79.4266 119.767 78.9508 120.24C78.0297 121.134 77.9206 121.995 78.6241 122.824C78.7728 123.04 78.9361 123.217 79.1147 123.357C80.0064 124.089 80.9671 124.654 81.9973 125.053C83.0179 125.462 84.1176 125.677 85.2965 125.699C87.0105 125.699 88.4571 124.945 89.636 123.438C90.4481 122.415 91.1268 121.312 91.672 120.127C92.5141 118.233 93.3414 116.327 94.1535 114.411C94.5005 113.625 94.8469 112.844 95.1939 112.07ZM106.86 108.614H106.815C105.378 108.593 104.432 108.248 103.976 107.581C103.521 106.902 103.541 106.003 104.036 104.884C104.452 104.033 104.977 103.29 105.611 102.655C105.829 102.44 106.052 102.268 106.28 102.139C106.508 102.009 106.765 101.945 107.053 101.945C107.221 101.912 107.414 101.945 107.632 102.042C107.702 102.063 107.771 102.09 107.841 102.122C108.009 102.09 108.172 102.031 108.331 101.945C108.371 101.912 108.425 101.886 108.494 101.864C108.821 101.724 109.168 101.665 109.534 101.686C109.683 101.686 109.837 101.686 109.995 101.686C110.58 101.783 111.02 102.052 111.318 102.494C111.615 102.924 111.719 103.452 111.63 104.076C111.58 104.453 111.471 104.808 111.303 105.142C110.164 107.36 108.712 108.517 106.949 108.614H106.86ZM109.208 102.833C108.425 102.801 107.726 103.048 107.112 103.576C106.508 104.093 106.057 104.69 105.76 105.368C105.463 106.046 105.378 106.606 105.507 107.048C105.646 107.478 106.062 107.597 106.756 107.403C107.538 107.145 108.227 106.66 108.821 105.95C109.426 105.239 109.792 104.566 109.921 103.931C110.06 103.285 109.822 102.919 109.208 102.833Z" fill="#F7F7F7"/>
</svg>
